<svg width="65" height="61" viewBox="0 0 65 61" fill="none" xmlns="http://www.w3.org/2000/svg">
<path d="M3.11999 35.75C2.00596 35.75 1.39929 35.302 1.08513 34.9258C0.776377 34.5565 0.456794 33.902 0.678877 32.887L5.60443 10.6515L2.50971 10.8213H2.48624C1.55277 10.8213 0.875683 10.5273 0.451377 10.018C0.254613 9.78043 0.116392 9.50244 0.0472429 9.20524C-0.0219065 8.90804 -0.0201599 8.59946 0.0523496 8.30302C0.323183 7.07452 1.64666 6.05252 3.06221 5.97727L10.2989 5.58002C10.4293 5.57133 10.56 5.56666 10.6907 5.56602C10.9561 5.56602 11.6585 5.56602 12.1044 6.10152C12.5594 6.64752 12.406 7.34227 12.3554 7.56977L6.71485 33.0445C6.37721 34.5915 5.05554 35.6503 3.34568 35.743L3.11999 35.75ZM22.5171 32.25C19.9189 32.25 17.7594 31.3068 16.2717 29.5218C14.1718 27.0035 13.6229 23.1325 14.6864 18.327C16.5497 9.90602 22.2842 4.00152 28.9539 3.63577C31.8247 3.48002 34.2008 4.42677 35.8023 6.34652C37.9022 8.86477 38.4511 12.7358 37.3876 17.5413C35.5243 25.9588 29.7899 31.8633 23.1165 32.2308C22.917 32.2441 22.7171 32.2505 22.5171 32.25ZM28.6812 8.19452L28.4339 8.20152C24.9311 8.39577 22.0151 12.2335 20.6339 18.467C19.7708 22.366 19.946 25.2903 21.125 26.7043C21.6612 27.3483 22.4196 27.6755 23.3801 27.6755L23.6329 27.6685C27.1357 27.4778 30.0498 23.6418 31.4293 17.4065C32.2923 13.5075 32.119 10.5815 30.9418 9.16752C30.4073 8.52177 29.6454 8.19452 28.6812 8.19452ZM49.6094 29.3818C47.0112 29.3818 44.8482 28.4385 43.3586 26.6518C41.2587 24.1335 40.7098 20.2625 41.7733 15.457C43.6385 7.03427 49.3729 1.13152 56.0426 0.767517C58.9369 0.610017 61.2842 1.56027 62.8857 3.47827C64.9855 5.99652 65.5344 9.86752 64.471 14.6713C62.6094 23.087 56.8768 28.9915 50.2035 29.3643C50.0012 29.3783 49.8044 29.3818 49.6094 29.3818ZM55.7682 5.32452L55.5226 5.33152C52.018 5.52577 49.1021 9.36352 47.7226 15.5953C46.8596 19.496 47.0347 22.422 48.2137 23.8343C48.75 24.4783 49.5119 24.8055 50.4725 24.8055L50.7253 24.7985C54.2262 24.6078 57.1422 20.77 58.5217 14.5365C59.3865 10.6393 59.2132 7.71327 58.0342 6.29927C57.4961 5.65177 56.7342 5.32452 55.7682 5.32452ZM19.8611 60.2518C19.0152 60.2513 18.1962 59.9631 17.547 59.4374C16.8977 58.9118 16.4594 58.182 16.3084 57.3753C16.1573 56.5685 16.3031 55.736 16.7204 55.0227C17.1377 54.3095 17.8 53.7608 18.5918 53.4723C19.2003 53.2518 33.7567 48.0333 55.6707 46.2623C56.6196 46.1949 57.5577 46.4932 58.281 47.0924C59.0043 47.6916 59.4543 48.5433 59.5333 49.4624C59.6123 50.3814 59.3138 51.2936 58.7028 52.0005C58.0917 52.7075 57.2175 53.1521 56.2701 53.2378C35.3437 54.9283 21.2676 59.977 21.1268 60.0278C20.7115 60.1783 20.2818 60.2518 19.8611 60.2518ZM3.6129 49.75C2.76996 49.7497 1.95368 49.4636 1.30552 48.9412C0.657356 48.4189 0.218159 47.6932 0.0640295 46.89C-0.0900996 46.0867 0.0505524 45.2565 0.461613 44.5433C0.872673 43.83 1.52824 43.2785 2.31471 42.9845C3.29332 42.6188 26.7186 34.014 61.1975 32.2553C61.6718 32.2279 62.1471 32.2921 62.5956 32.4442C63.0441 32.5963 63.457 32.8333 63.8103 33.1413C64.1635 33.4494 64.4501 33.8223 64.6534 34.2386C64.8567 34.6549 64.9727 35.1062 64.9946 35.5663C65.0197 36.0253 64.9512 36.4847 64.7931 36.9181C64.635 37.3515 64.3903 37.7505 64.0731 38.0923C63.7559 38.434 63.3723 38.7119 62.9442 38.9099C62.5162 39.108 62.0521 39.2223 61.5785 39.2465C28.3147 40.944 5.13499 49.4333 4.90388 49.519C4.49154 49.6712 4.05411 49.7494 3.6129 49.75Z" fill="#98012E"/>
</svg>
