<svg width="41" height="35" viewBox="0 0 41 35" fill="none" xmlns="http://www.w3.org/2000/svg">
<path d="M20.4493 7.54996C19.8567 7.86009 19.2696 8.28984 18.725 8.8792C15.9951 11.8306 13.5134 14.513 13.5134 14.513L13.5145 14.5147C13.4997 14.5308 13.4848 14.5439 13.4699 14.5606C12.7633 15.3249 12.7352 16.5435 13.3878 17.343C13.4137 17.3751 13.4413 17.4067 13.4699 17.437C14.2035 18.2311 15.3946 18.233 16.131 17.437L18.9976 14.3386C19.4921 14.5344 19.9784 14.6487 20.4449 14.7058C21.0805 14.782 21.6775 14.7534 22.2084 14.6725C23.5026 14.4743 23.3671 14.532 24.1178 14.2653C24.8667 13.9998 25.7083 13.4557 25.7083 13.4557L26.2177 14.0057C26.2739 14.0647 27.5726 15.4707 28.2351 16.1857C28.3524 16.313 28.452 16.4178 28.5187 16.4928C28.5953 16.5791 28.6806 16.6416 28.7335 16.725L32.0389 20.2979C32.9917 19.1424 34.08 17.4215 33.9456 15.4458L25.6862 6.51942C25.6862 6.51942 22.8273 6.29861 20.4493 7.54996Z" fill="white"/>
<path d="M20.9096 29.4761C20.1781 28.6844 18.9908 28.6844 18.2589 29.4761L17.7148 30.0642C18.4451 29.2737 18.4445 27.9932 17.7132 27.2021C16.9813 26.4122 15.7955 26.4122 15.0636 27.2027C15.7955 26.4122 15.7955 25.1306 15.0636 24.3388C14.3323 23.547 13.146 23.5483 12.4141 24.3388C13.146 23.5483 13.146 22.2661 12.4141 21.4743C11.6826 20.6838 10.4964 20.6838 9.76445 21.4755L8.12605 23.2458C7.39414 24.0375 7.39414 25.3186 8.12605 26.1103C8.85741 26.9009 10.0432 26.9009 10.775 26.1103C10.0431 26.9009 10.0431 28.1831 10.775 28.9742C11.5075 29.7647 12.6932 29.7647 13.4251 28.9742C12.6932 29.7647 12.6932 31.0464 13.4251 31.8381C14.1571 32.6287 15.3428 32.6287 16.0748 31.8381L16.6195 31.2488C15.8892 32.0405 15.8897 33.3209 16.6211 34.1121C17.353 34.9026 18.5387 34.9026 19.2707 34.1121L20.9096 32.3405C21.6409 31.5483 21.6409 30.2666 20.9096 29.4761Z" fill="white"/>
<path d="M40.6787 10.7728L31.0338 0.346462C30.6053 -0.115487 29.9125 -0.115487 29.4852 0.346462L26.3917 3.69012C25.9643 4.15207 25.9643 4.90096 26.3917 5.36351L36.0377 15.7893C36.4645 16.2524 37.1585 16.2524 37.5853 15.7893L40.6787 12.4449C41.1072 11.9843 41.1072 11.2354 40.6787 10.7728ZM37.9295 13.0849C37.469 13.5814 36.7245 13.5814 36.2657 13.0849C35.8065 12.5878 35.8065 11.783 36.2657 11.2865C36.7245 10.7901 37.469 10.7901 37.9295 11.2865C38.3888 11.783 38.3883 12.5878 37.9295 13.0849Z" fill="white"/>
<path d="M14.6076 3.98547L11.5147 0.641812C11.0874 0.179862 10.394 0.179862 9.96658 0.641812L0.320533 11.0681C-0.106844 11.5288 -0.106844 12.2789 0.320533 12.7403L3.41403 16.0852C3.84085 16.5466 4.53528 16.5466 4.96154 16.0852L14.6076 5.65878C15.0355 5.19683 15.0355 4.44794 14.6076 3.98547ZM4.73404 13.3802C4.27471 13.8761 3.52966 13.8761 3.07026 13.3802C2.61101 12.8832 2.61101 12.0783 3.07026 11.5818C3.52958 11.0854 4.27471 11.0854 4.73404 11.5818C5.19337 12.0783 5.19337 12.8831 4.73404 13.3802Z" fill="white"/>
<path d="M31.8332 22.4171L31.2352 21.7695L25.4288 15.4934L25.0378 15.6808L24.6121 15.8469L24.5813 15.8571C24.5064 15.8827 23.8058 16.1142 22.4247 16.3255C21.6943 16.4357 20.9708 16.4494 20.2702 16.3631C19.9932 16.3297 19.7179 16.2808 19.4458 16.2166L17.223 18.618C15.8875 20.0616 13.7127 20.0616 12.3772 18.618C12.3303 18.5669 12.2852 18.515 12.2434 18.4639L12.229 18.4466C11.3859 17.4132 11.1717 15.9988 11.5682 14.7713L12.4229 13.3337L12.4213 13.332L17.6329 7.69941C17.8448 7.47082 18.0674 7.25772 18.2986 7.05647C16.6746 6.71181 15.312 6.8136 15.312 6.8136L7.05422 15.741C6.94299 17.3845 7.98721 19.1858 8.7301 20.2378C10.0668 18.8561 12.1926 18.874 13.506 20.2944C13.9951 20.8224 14.303 21.473 14.4329 22.1551C15.0651 22.2968 15.6665 22.629 16.1556 23.1576C16.6446 23.6868 16.9525 24.3375 17.0825 25.0202C17.7141 25.1607 18.3166 25.4928 18.8052 26.0215C19.1318 26.3745 19.3779 26.7817 19.5437 27.2175C20.4326 27.2056 21.3248 27.5651 22.0011 28.2955C23.3344 29.7355 23.3339 32.0809 22.0011 33.5203L21.4559 34.1108L21.729 34.4061C22.4616 35.1979 23.6472 35.1979 24.3792 34.4061C25.1111 33.6155 25.1111 32.3334 24.3792 31.5422L24.9244 32.1333C25.6569 32.9238 26.842 32.9238 27.5739 32.1333C28.3058 31.3416 28.3064 30.06 27.5739 29.2682C28.3064 30.06 29.4916 30.06 30.2235 29.2682C30.9549 28.4783 30.9565 27.1961 30.2235 26.4043C30.9565 27.1961 32.1417 27.1961 32.8731 26.4043C33.6056 25.6138 33.6056 24.3315 32.8731 23.541L31.8332 22.4171Z" fill="white"/>
</svg>
