<svg width="37" height="30" viewBox="0 0 37 30" fill="none" xmlns="http://www.w3.org/2000/svg">
<path d="M33.9429 26.4395V26.9395H34.4429H35.1222C35.9071 26.9395 36.5001 27.5391 36.5001 28.2197V29.4318C36.5001 29.4417 36.4968 29.4553 36.4806 29.4707C36.464 29.4864 36.4369 29.4999 36.4008 29.4999H22.336C22.2999 29.4999 22.2728 29.4864 22.2562 29.4707C22.24 29.4553 22.2366 29.4417 22.2366 29.4318V28.2197C22.2366 27.5391 22.8297 26.9395 23.6146 26.9395H24.2939H24.7939V26.4395V25.7956C24.7939 25.115 25.3869 24.5154 26.1718 24.5154H32.5649C33.3498 24.5154 33.9429 25.115 33.9429 25.7956V26.4395ZM33.2442 26.9395H33.7442V26.4395V25.7956C33.7442 25.1395 33.1901 24.6517 32.5649 24.6517H26.1718C25.5467 24.6517 24.9926 25.1395 24.9926 25.7956V26.4395V26.9395H25.4926H33.2442ZM35.8014 29.3636H36.3014V28.8636V28.2197C36.3014 27.5637 35.7473 27.0758 35.1222 27.0758H23.6146C22.9894 27.0758 22.4353 27.5637 22.4353 28.2197V28.8636V29.3636H22.9353H35.8014Z" stroke="#557A95"/>
<path d="M23.6621 14.2075L23.2793 14.5704L23.251 14.5972C22.7267 15.0941 22.7268 15.8921 23.251 16.389L23.251 16.389C23.5101 16.6346 23.8575 16.7733 24.2349 16.7733C24.6122 16.7733 24.9596 16.6346 25.2189 16.389C25.2189 16.389 25.2189 16.389 25.2189 16.3889L28.8353 12.9608C29.0935 12.7161 29.2294 12.3989 29.2294 12.0649C29.2294 11.7309 29.0935 11.4137 28.8353 11.1689C28.5762 10.9233 28.2288 10.7847 27.8514 10.7847C27.4742 10.7847 27.1269 10.9232 26.8678 11.1686C26.8677 11.1687 26.8676 11.1688 26.8675 11.1689L26.8398 11.1953L26.4958 11.5223L26.1513 11.1958L24.7611 9.87786L24.5374 9.66583L24.6264 9.37075C24.6924 9.15158 24.637 8.90323 24.4472 8.72331L20.5659 5.04401C20.3722 4.86036 20.0855 4.79505 19.8227 4.86625L19.5517 4.93967L19.3479 4.74654L17.9577 3.42872L17.5754 3.06636L17.9572 2.70345L17.9854 2.67664L17.9859 2.67615C18.2441 2.4314 18.3799 2.11422 18.3799 1.78022C18.3799 1.44626 18.2441 1.12914 17.9859 0.884286C17.7268 0.638677 17.3793 0.5 17.0019 0.5C16.6246 0.5 16.2771 0.638677 16.018 0.884286M23.6621 14.2075L16.018 0.884286M23.6621 14.2075L23.2792 13.8446M23.6621 14.2075L23.2792 13.8446M16.018 0.884286L12.4016 4.31253L12.0576 3.94966M16.018 0.884286L12.0576 3.94966M12.0576 3.94966L12.4016 4.31253C12.1434 4.55728 12.0076 4.87446 12.0076 5.20846C12.0076 5.54247 12.1434 5.85965 12.4016 6.10439L12.4016 6.10443C12.6682 6.35714 13.0231 6.48785 13.3855 6.48785C13.7479 6.48785 14.1029 6.3571 14.3695 6.10439L14.3978 6.07758L14.7417 5.7515L15.0857 6.07758L16.4756 7.39509L16.6994 7.60724L16.6103 7.90244C16.5922 7.96215 16.5831 8.02237 16.5831 8.08264C16.5831 8.25487 16.6524 8.41974 16.7898 8.54998L16.7899 8.55004L16.9505 8.7023L17.3333 9.06516L16.9505 9.42803L15.7079 10.606L15.7079 10.606C15.4219 10.8772 15.2961 11.2342 15.3193 11.582L15.335 11.8165L15.1644 11.9782L0.894027 25.5058C0.635832 25.7505 0.5 26.0676 0.5 26.4017C0.5 26.7358 0.635832 27.0529 0.894028 27.2976C1.15312 27.5432 1.5006 27.6819 1.87797 27.6819C2.25534 27.6819 2.60282 27.5432 2.86191 27.2976L17.1322 13.7701L17.2894 13.6211L17.5056 13.6338C17.5176 13.6345 17.5277 13.6351 17.5365 13.6357C17.5657 13.6375 17.5799 13.6383 17.5959 13.6383C17.9581 13.6383 18.3132 13.5076 18.5798 13.2549L18.5798 13.2549L19.8225 12.077L20.1664 11.7509L20.5104 12.077L20.671 12.2293C20.8095 12.3605 20.9964 12.4361 21.2029 12.4361C21.2746 12.4361 21.3455 12.4263 21.4145 12.4076L21.6856 12.3341L21.8894 12.5273L23.2792 13.8446M12.0576 3.94966L23.2792 13.8446M15.3444 12.0367L15.6886 12.377C15.6973 12.3856 15.7045 12.3932 15.7094 12.3985L15.7155 12.4051L16.6043 13.2477L16.6115 13.2537C16.6171 13.2583 16.625 13.2651 16.634 13.2732L17.0325 13.6355L16.6416 14.0061L2.70223 27.2198C2.47849 27.4319 2.18382 27.5456 1.87797 27.5456C1.57231 27.5456 1.27758 27.4321 1.05371 27.2198L15.3444 12.0367ZM15.3444 12.0367L14.993 12.3697M15.3444 12.0367L14.993 12.3697M14.993 12.3697L1.05382 25.5834C0.828888 25.7965 0.698704 26.0882 0.698704 26.4017C0.698704 26.7153 0.829022 27.0068 1.05359 27.2197L14.993 12.3697ZM28.6757 12.8831L28.3709 12.5615L28.6757 12.8831C28.9006 12.67 29.0307 12.3784 29.0307 12.0649C29.0307 11.7512 28.9004 11.4597 28.6757 11.2467C28.4438 11.0269 28.144 10.9213 27.8514 10.9213C27.5589 10.9213 27.2591 11.0268 27.0271 11.2467L23.4107 14.6749C22.9378 15.1231 22.9378 15.863 23.4107 16.3113C23.8683 16.7451 24.6014 16.7453 25.0593 16.3113L28.6757 12.8831ZM23.4389 13.7669L23.7829 14.093L24.1269 13.7669L25.9917 11.9992L26.3745 11.6363L25.9917 11.2735L24.7114 10.0598L24.3674 9.73373L24.0234 10.0598L22.1586 11.8275L21.7758 12.1904L22.1586 12.5533L23.4389 13.7669ZM12.5613 6.02662L12.5613 6.02667C13.019 6.46041 13.752 6.46041 14.2097 6.02667L14.2098 6.02662L17.8263 2.59837C18.2991 2.15013 18.2991 1.41023 17.8263 0.96199C17.6024 0.749693 17.3077 0.636234 17.002 0.636234C16.6962 0.636234 16.4015 0.749851 16.1777 0.96199L16.4836 1.28467L16.1777 0.961993L12.5613 4.39023C12.0884 4.83848 12.0884 5.57837 12.5613 6.02662ZM17.7981 3.50634L17.4541 3.18026L17.1101 3.50634L15.2453 5.27406L14.8625 5.63693L15.2453 5.9998L16.5256 7.21345L16.8696 7.53953L17.2136 7.21345L19.0784 5.44573L19.4612 5.08286L19.0784 4.71999L17.7981 3.50634ZM16.6001 13.2442C16.5979 13.2424 16.5988 13.2431 16.6005 13.2445L16.6001 13.2442ZM16.7716 13.1771L16.7716 13.1772C17.2294 13.6109 17.9624 13.611 18.4202 13.1771C18.4202 13.1771 18.4202 13.1771 18.4202 13.1771L19.6628 11.9992L20.0457 11.6364L19.6629 11.2735L17.7981 9.50575L17.4541 9.17966L17.1101 9.50576L15.8675 10.6837C15.3947 11.132 15.3947 11.8719 15.8675 12.3201L16.7716 13.1771ZM19.6636 5.12003L19.6617 5.12179L16.9494 7.69296C16.9188 7.72193 16.7817 7.85494 16.7817 8.08264C16.7817 8.31132 16.9201 8.44448 16.9494 8.47226L20.8306 12.1515L20.8306 12.1516L20.8356 12.1562C20.8355 12.1561 20.8509 12.1706 20.8711 12.1863C20.8918 12.2024 20.9187 12.2209 20.9519 12.2383C21.0211 12.2744 21.1064 12.2997 21.2029 12.2997C21.411 12.2997 21.539 12.1858 21.5752 12.1516L24.2875 9.58039C24.5111 9.36842 24.5111 9.01298 24.2875 8.80101L20.4063 5.12179L20.4044 5.12003C20.2984 5.02059 20.1637 4.9736 20.034 4.9736C19.9044 4.9736 19.7696 5.02059 19.6636 5.12003Z" stroke="#557A95"/>
</svg>
