<svg width="31" height="30" viewBox="0 0 31 30" fill="none" xmlns="http://www.w3.org/2000/svg">
<mask id="path-1-inside-1_20_73" fill="white">
<path d="M28.3218 14.1799V13.5991H29.4266C29.7039 13.5991 29.9287 13.3696 29.9287 13.0866V11.4123H30.4978C30.7752 11.4123 31 11.1828 31 10.8998V9.25967C31 9.07577 30.9035 8.90589 30.747 8.81466L15.7491 0.0675C15.5947 -0.0225 15.4052 -0.0225 15.2509 0.0675L0.253022 8.81466C0.0965486 8.90589 0 9.07571 0 9.25967V10.8998C0 11.1828 0.224834 11.4123 0.50216 11.4123H1.07127V13.0866C1.07127 13.3696 1.29611 13.5991 1.57343 13.5991H2.67819V14.1799C2.67819 14.5781 2.89478 14.9254 3.21382 15.1063V24.6014H1.57343C1.29611 24.6014 1.07127 24.8308 1.07127 25.1139V26.7882H0.50216C0.224834 26.7882 0 27.0176 0 27.3007V29.4875C0 29.7705 0.224834 30 0.50216 30H30.4978C30.7752 30 31 29.7705 31 29.4875V27.3007C31 27.0176 30.7752 26.7882 30.4978 26.7882H29.9287V25.1139C29.9287 24.8308 29.7039 24.6014 29.4266 24.6014H27.7862V15.1063C28.1052 14.9254 28.3218 14.5781 28.3218 14.1799ZM27.3175 14.1799C27.3175 14.1988 27.3025 14.2141 27.284 14.2141H25.1415C25.123 14.2141 25.108 14.1988 25.108 14.1799V13.5991H27.3175V14.1799ZM22.4298 24.6014V15.1063C22.7488 14.9254 22.9654 14.5781 22.9654 14.1799V13.5991H24.1037V14.1799C24.1037 14.5781 24.3203 14.9254 24.6393 15.1063V24.6014H22.4298ZM20.2873 24.6014V15.2392H21.4255V24.6014H20.2873ZM17.0734 24.6014V15.1063C17.3925 14.9254 17.6091 14.5781 17.6091 14.1799V13.5991H18.7473V14.1799C18.7473 14.5781 18.9639 14.9254 19.2829 15.1063V24.6014H17.0734ZM14.9309 24.6014V15.2392H16.0691V24.6014H14.9309ZM11.7171 24.6014V15.1063C12.0361 14.9254 12.2527 14.5781 12.2527 14.1799V13.5991H13.3909V14.1799C13.3909 14.5781 13.6075 14.9254 13.9266 15.1063V24.6014H11.7171ZM9.57451 24.6014V15.2392H10.7127V24.6014H9.57451ZM6.36069 24.6014V15.1063C6.67973 14.9254 6.89633 14.5781 6.89633 14.1799V13.5991H8.03456V14.1799C8.03456 14.5781 8.25116 14.9254 8.57019 15.1063V24.6014H6.36069ZM11.2484 13.5991V14.1799C11.2484 14.1988 11.2334 14.2141 11.2149 14.2141H9.07235C9.05387 14.2141 9.03888 14.1988 9.03888 14.1799V13.5991H11.2484ZM16.6048 13.5991V14.1799C16.6048 14.1988 16.5898 14.2141 16.5713 14.2141H14.4287C14.4102 14.2141 14.3952 14.1988 14.3952 14.1799V13.5991H16.6048ZM21.9611 13.5991V14.1799C21.9611 14.1988 21.9461 14.2141 21.9276 14.2141H19.7851C19.7666 14.2141 19.7516 14.1988 19.7516 14.1799V13.5991H21.9611ZM1.00432 9.55707L15.5 1.10281L29.9957 9.55707V10.3872H1.00432V9.55707ZM2.07559 11.4123H28.9244V12.574H2.07559V11.4123ZM5.89201 13.5991V14.1799C5.89201 14.1988 5.87701 14.2141 5.85853 14.2141H3.71598C3.6975 14.2141 3.68251 14.1988 3.68251 14.1799V13.5991H5.89201ZM4.21814 15.2392H5.35637V24.6014H4.21814V15.2392ZM29.9957 28.9749H1.00432V27.8132H29.9957V28.9749ZM28.9244 26.7882H2.07559V25.6264H28.9244V26.7882ZM25.6436 24.6014V15.2392H26.7819V24.6014H25.6436Z"/>
</mask>
<path d="M28.3218 14.1799V13.5991H29.4266C29.7039 13.5991 29.9287 13.3696 29.9287 13.0866V11.4123H30.4978C30.7752 11.4123 31 11.1828 31 10.8998V9.25967C31 9.07577 30.9035 8.90589 30.747 8.81466L15.7491 0.0675C15.5947 -0.0225 15.4052 -0.0225 15.2509 0.0675L0.253022 8.81466C0.0965486 8.90589 0 9.07571 0 9.25967V10.8998C0 11.1828 0.224834 11.4123 0.50216 11.4123H1.07127V13.0866C1.07127 13.3696 1.29611 13.5991 1.57343 13.5991H2.67819V14.1799C2.67819 14.5781 2.89478 14.9254 3.21382 15.1063V24.6014H1.57343C1.29611 24.6014 1.07127 24.8308 1.07127 25.1139V26.7882H0.50216C0.224834 26.7882 0 27.0176 0 27.3007V29.4875C0 29.7705 0.224834 30 0.50216 30H30.4978C30.7752 30 31 29.7705 31 29.4875V27.3007C31 27.0176 30.7752 26.7882 30.4978 26.7882H29.9287V25.1139C29.9287 24.8308 29.7039 24.6014 29.4266 24.6014H27.7862V15.1063C28.1052 14.9254 28.3218 14.5781 28.3218 14.1799ZM27.3175 14.1799C27.3175 14.1988 27.3025 14.2141 27.284 14.2141H25.1415C25.123 14.2141 25.108 14.1988 25.108 14.1799V13.5991H27.3175V14.1799ZM22.4298 24.6014V15.1063C22.7488 14.9254 22.9654 14.5781 22.9654 14.1799V13.5991H24.1037V14.1799C24.1037 14.5781 24.3203 14.9254 24.6393 15.1063V24.6014H22.4298ZM20.2873 24.6014V15.2392H21.4255V24.6014H20.2873ZM17.0734 24.6014V15.1063C17.3925 14.9254 17.6091 14.5781 17.6091 14.1799V13.5991H18.7473V14.1799C18.7473 14.5781 18.9639 14.9254 19.2829 15.1063V24.6014H17.0734ZM14.9309 24.6014V15.2392H16.0691V24.6014H14.9309ZM11.7171 24.6014V15.1063C12.0361 14.9254 12.2527 14.5781 12.2527 14.1799V13.5991H13.3909V14.1799C13.3909 14.5781 13.6075 14.9254 13.9266 15.1063V24.6014H11.7171ZM9.57451 24.6014V15.2392H10.7127V24.6014H9.57451ZM6.36069 24.6014V15.1063C6.67973 14.9254 6.89633 14.5781 6.89633 14.1799V13.5991H8.03456V14.1799C8.03456 14.5781 8.25116 14.9254 8.57019 15.1063V24.6014H6.36069ZM11.2484 13.5991V14.1799C11.2484 14.1988 11.2334 14.2141 11.2149 14.2141H9.07235C9.05387 14.2141 9.03888 14.1988 9.03888 14.1799V13.5991H11.2484ZM16.6048 13.5991V14.1799C16.6048 14.1988 16.5898 14.2141 16.5713 14.2141H14.4287C14.4102 14.2141 14.3952 14.1988 14.3952 14.1799V13.5991H16.6048ZM21.9611 13.5991V14.1799C21.9611 14.1988 21.9461 14.2141 21.9276 14.2141H19.7851C19.7666 14.2141 19.7516 14.1988 19.7516 14.1799V13.5991H21.9611ZM1.00432 9.55707L15.5 1.10281L29.9957 9.55707V10.3872H1.00432V9.55707ZM2.07559 11.4123H28.9244V12.574H2.07559V11.4123ZM5.89201 13.5991V14.1799C5.89201 14.1988 5.87701 14.2141 5.85853 14.2141H3.71598C3.6975 14.2141 3.68251 14.1988 3.68251 14.1799V13.5991H5.89201ZM4.21814 15.2392H5.35637V24.6014H4.21814V15.2392ZM29.9957 28.9749H1.00432V27.8132H29.9957V28.9749ZM28.9244 26.7882H2.07559V25.6264H28.9244V26.7882ZM25.6436 24.6014V15.2392H26.7819V24.6014H25.6436Z" stroke="#557A95" stroke-width="2" mask="url(#path-1-inside-1_20_73)"/>
</svg>
