<svg width="27" height="30" viewBox="0 0 27 30" fill="none" xmlns="http://www.w3.org/2000/svg">
<path d="M21.7748 12.4998H7.81651C7.50831 12.4998 7.25818 12.7233 7.25818 12.9998C7.25818 13.2763 7.50831 13.4998 7.81651 13.4998H21.7748C22.083 13.4998 22.3332 13.2763 22.3332 12.9998C22.3332 12.7233 22.083 12.4998 21.7748 12.4998Z" fill="#557A95"/>
<path d="M7.81651 9.50006H13.3998C13.708 9.50006 13.9582 9.27656 13.9582 9.00006C13.9582 8.72356 13.708 8.50006 13.3998 8.50006H7.81651C7.50831 8.50006 7.25818 8.72356 7.25818 9.00006C7.25818 9.27656 7.50831 9.50006 7.81651 9.50006Z" fill="#557A95"/>
<path d="M21.7748 16.5001H7.81651C7.50831 16.5001 7.25818 16.7236 7.25818 17.0001C7.25818 17.2766 7.50831 17.5001 7.81651 17.5001H21.7748C22.083 17.5001 22.3332 17.2766 22.3332 17.0001C22.3332 16.7236 22.083 16.5001 21.7748 16.5001Z" fill="#557A95"/>
<path d="M21.7748 20.4998H7.81651C7.50831 20.4998 7.25818 20.7233 7.25818 20.9998C7.25818 21.2763 7.50831 21.4998 7.81651 21.4998H21.7748C22.083 21.4998 22.3332 21.2763 22.3332 20.9998C22.3332 20.7233 22.083 20.4998 21.7748 20.4998Z" fill="#557A95"/>
<path d="M21.7748 24.5002H7.81651C7.50831 24.5002 7.25818 24.7237 7.25818 25.0002C7.25818 25.2767 7.50831 25.5002 7.81651 25.5002H21.7748C22.083 25.5002 22.3332 25.2767 22.3332 25.0002C22.3332 24.7237 22.083 24.5002 21.7748 24.5002Z" fill="#557A95"/>
<path d="M24.0083 7.293V0H0V27.5H2.79167V30H26.8V9.793L24.0083 7.293ZM18.9833 4.207L24.0083 8.707L24.8938 9.5H18.9833V4.207ZM1.11667 26.5V1H22.8917V6.293L18.6562 2.5H2.79167V26.5H1.11667ZM3.90833 29V27.5V3.5H17.8667V10.5H25.6833V29H3.90833Z" fill="#557A95"/>
</svg>
