<svg width="24" height="30" viewBox="0 0 24 30" fill="none" xmlns="http://www.w3.org/2000/svg">
<g clip-path="url(#clip0_20_123)">
<path d="M5.77706 15.7999L5.68644 15.5611L5.43991 15.4946C4.37005 15.2058 3.60522 14.1971 3.60522 13.0007C3.60522 12.1985 3.96905 11.4367 4.57128 10.9522L4.80732 10.7622L4.74824 10.4651L4.68788 10.1615C6.75704 11.1159 9.6113 11.5308 11.6716 11.5308C13.7932 11.5308 16.7134 11.0975 18.7905 10.0969L18.7183 10.4649L18.6601 10.7615L18.8957 10.9508C19.4983 11.4354 19.8625 12.1975 19.8625 13.0007C19.8625 14.1975 19.0978 15.2058 18.0277 15.4946L17.7812 15.5611L17.6906 15.7999C16.7939 18.1625 14.4132 19.7673 11.7339 19.7673C9.05455 19.7673 6.67388 18.1625 5.77706 15.7999Z" stroke="#557A95"/>
<path d="M10.9543 21.8061H12.5136V22.3053L12.3688 22.4035L11.9945 22.6577L12.2101 23.0555L12.9092 24.3449L13.2295 24.9357L13.7033 24.4592C14.3353 23.8236 15.0371 23.1256 15.6347 22.5503C16.0783 22.1233 16.4424 21.7857 16.6769 21.586C17.1169 21.8917 17.6207 22.1879 18.1258 22.485L18.1433 22.4952C19.1135 23.0659 20.0832 23.6389 20.817 24.3377C21.5389 25.025 21.9885 25.7929 21.9886 26.7524C21.9886 26.8795 21.9039 27.1248 21.5258 27.4491C21.1575 27.765 20.5678 28.103 19.7214 28.4122C18.0319 29.0292 15.4056 29.5 11.7335 29.5C8.06131 29.5 5.43498 29.0292 3.74555 28.4122C2.89917 28.103 2.30947 27.765 1.94112 27.4491C1.563 27.1248 1.47836 26.8795 1.47836 26.7524C1.47836 25.7928 1.92798 25.025 2.64978 24.3377C3.38357 23.6389 4.3533 23.0659 5.32355 22.4952L5.32355 22.4952L5.34431 22.483C5.84816 22.1867 6.35079 21.8911 6.78985 21.586C7.02446 21.7859 7.38869 22.1235 7.83223 22.5504C8.43003 23.1258 9.1321 23.8239 9.76426 24.4597L10.2381 24.9362L10.5584 24.3454L11.2577 23.0555L11.4734 22.6577L11.099 22.4035L10.9543 22.3053V21.8061Z" stroke="#557A95"/>
<path d="M19.1042 5.96581L18.7843 6.08934V6.43224V7.99039C18.7843 8.01655 18.7427 8.18742 18.3651 8.46516C18.0191 8.71956 17.4942 8.98502 16.8204 9.22559C15.4776 9.70508 13.6316 10.0547 11.6716 10.0547C9.71163 10.0547 7.8656 9.70507 6.52279 9.22557C5.84906 8.98499 5.32409 8.71953 4.97815 8.46514C4.60046 8.18739 4.55894 8.01653 4.55894 7.99039V6.43212V6.08915L4.23898 5.96566L0.649026 4.58004L10.7858 0.662654L10.7864 0.662442C11.0582 0.557016 11.3653 0.5 11.6716 0.5C11.9779 0.5 12.2851 0.557016 12.5571 0.662466L12.5577 0.662686L22.1248 4.35795L22.1258 4.35832L22.8201 4.62813L22.8202 4.67893L22.8336 8.75201L22.8351 9.18405L23.2627 9.24531C23.3664 9.26017 23.4094 9.33655 23.4094 9.38475C23.4094 9.41549 23.3854 9.47717 23.2969 9.50513L22.8857 9.63497L22.9537 10.0607L23.4139 12.9437H21.9864L22.4466 10.0607L22.5146 9.63472L22.1032 9.50504C22.0141 9.47696 21.9903 9.41515 21.9903 9.38475C21.9903 9.33784 22.0328 9.26127 22.1362 9.24593L22.5629 9.18265V8.75134V5.35925V4.63018L21.8827 4.89282L19.1042 5.96581Z" stroke="#557A95"/>
</g>
<defs>
<clipPath id="clip0_20_123">
<rect width="24" height="30" fill="white"/>
</clipPath>
</defs>
</svg>
