<svg width="213" height="58" viewBox="0 0 213 58" fill="none" xmlns="http://www.w3.org/2000/svg">
<path d="M15.6782 13.9767C18.4479 17.3534 21.1538 20.6489 23.858 23.9459C25.54 25.9964 27.2304 28.042 28.8983 30.1049C32.1983 34.1857 35.4893 38.2747 38.777 42.3649C40.4276 44.4175 42.0537 46.4903 43.7098 48.5373C45.3549 50.5729 47.5617 51.7651 49.8884 52.7399C50.8782 53.1546 51.9243 53.4301 53.0593 53.8064C53.0457 53.474 53.052 53.2913 53.0283 53.1121C52.643 50.0959 51.6555 47.2992 50.014 44.7706C49.5479 44.0518 48.899 43.4519 48.3031 42.8291C46.261 40.6946 44.1969 38.584 42.1565 36.4482C38.3959 32.5068 34.6422 28.56 30.8945 24.6046C29.0478 22.6547 27.2178 20.6865 25.3872 18.7214C23.268 16.4464 21.1574 14.163 19.0417 11.8852C18.8992 11.7321 18.7406 11.5958 18.6294 11.4887C19.3282 9.84588 20.8265 8.75927 21.6973 7.05344C21.1228 6.93372 20.757 6.80102 20.3952 6.80786C20.2394 6.81089 19.9832 7.08049 19.9523 7.26126C19.7177 8.66935 18.6234 9.15483 17.5549 9.65681C17.4204 9.72041 17.1576 9.61698 17.0105 9.5111C14.2717 7.54735 12.1558 4.97418 10.2445 2.20057C10.107 2.00027 9.93017 1.78151 9.72203 1.68917C9.35401 1.52583 9.03673 1.40175 9.12525 0.87958C9.14264 0.775102 8.95441 0.593011 8.82255 0.511686C8.17096 0.102982 7.36526 0.183016 6.75793 0.690922C6.12085 1.22168 5.87279 2.03538 6.12109 2.77707C6.22514 3.08593 6.35956 3.34168 6.75199 3.3265C6.86606 3.32222 7.07717 3.45013 7.08727 3.53622C7.18148 4.38179 7.87384 4.75486 8.387 5.2314C10.5905 7.2775 12.5389 9.52949 14.0312 12.1819C14.2038 12.4894 14.2622 12.7454 14.0398 13.0294C13.6629 13.5116 13.3402 14.0638 12.8851 14.4468C12.5335 14.7425 12.009 14.8153 11.5701 15.0105C11.3831 15.0937 11.0737 15.2295 11.0716 15.3473C11.0642 15.7423 11.131 16.1528 11.2656 16.5219C11.2895 16.586 11.826 16.5629 12.0337 16.4301C13.2617 15.6381 14.4629 14.8024 15.6782 13.9767Z" fill="#7395AE"/>
<path d="M64.3218 13.9776C61.5521 17.3543 58.8462 20.6496 56.1419 23.9467C54.46 25.9972 52.7695 28.0428 51.1017 30.1057C47.8017 34.1865 44.5107 38.2755 41.2229 42.3657C39.5723 44.4183 37.9462 46.4911 36.2902 48.5381C34.645 50.5737 32.4383 51.7659 30.1116 52.7407C29.1218 53.1554 28.0756 53.4309 26.9406 53.8072C26.9543 53.4748 26.9479 53.2921 26.9716 53.1129C27.3569 50.0967 28.3444 47.3 29.9859 44.7714C30.4521 44.0526 31.1009 43.4527 31.6968 42.8299C33.739 40.6954 35.8031 38.5848 37.8435 36.449C41.6041 32.5076 45.3577 28.5608 49.1054 24.6054C50.9522 22.6555 52.7822 20.6873 54.6128 18.7222C56.7319 16.4471 58.8426 14.1638 60.9583 11.8861C61.1007 11.733 61.2593 11.5966 61.3705 11.4896C60.6718 9.84676 59.1734 8.76011 58.3026 7.05415C58.8772 6.93448 59.243 6.8019 59.6048 6.8086C59.7608 6.81172 60.0167 7.08138 60.0476 7.26204C60.2823 8.67013 61.3766 9.15565 62.445 9.65763C62.5796 9.72132 62.8423 9.61784 62.9896 9.51195C65.7282 7.54822 67.8442 4.97506 69.7555 2.20138C69.893 2.00107 70.0698 1.78234 70.2779 1.68994C70.646 1.52672 70.9632 1.40264 70.8747 0.880407C70.8573 0.775836 71.0455 0.593841 71.1774 0.512451C71.829 0.103851 72.6347 0.183834 73.242 0.691773C73.8791 1.22256 74.1272 2.03622 73.8788 2.77781C73.7748 3.08675 73.6404 3.3424 73.248 3.3274C73.1339 3.3231 72.9228 3.45093 72.9127 3.537C72.8185 4.3825 72.1261 4.75564 71.613 5.23225C69.4095 7.27837 67.461 9.53023 65.9687 12.1827C65.7962 12.4903 65.7377 12.7462 65.9602 13.0303C66.337 13.5124 66.6597 14.0646 67.1148 14.4476C67.4664 14.7433 67.9909 14.8162 68.4298 15.0113C68.6168 15.0945 68.9263 15.2303 68.9284 15.3481C68.9358 15.7431 68.8689 16.1536 68.7343 16.5227C68.7105 16.5868 68.174 16.5638 67.9662 16.4309C66.7384 15.6405 65.537 14.8031 64.3218 13.9776Z" fill="#557A95"/>
<path d="M62.7261 45.7938C62.6199 46.1436 62.3831 46.3857 62.103 46.5915C61.6645 46.9126 61.1707 47.1169 60.663 47.2893C60.5567 47.3259 60.4491 47.359 60.3383 47.3939C60.3291 47.4523 60.3214 47.5063 60.3105 47.56C60.2582 47.8322 60.0598 48.038 59.7953 48.0886C59.7213 48.1028 59.6459 48.1091 59.5705 48.1091C57.2826 48.1108 54.9933 48.1108 52.7054 48.1091C52.6099 48.1091 52.5084 48.1045 52.4177 48.0743C52.1609 47.9905 52.0007 47.8101 51.9561 47.5315C51.95 47.4888 51.9439 47.4445 51.9361 47.3985C51.7592 47.3399 51.5853 47.2847 51.4131 47.2213C51.0314 47.0835 50.6606 46.9206 50.3192 46.6976C50.1222 46.5693 49.9375 46.4269 49.7884 46.2417C49.7406 46.1816 49.6944 46.1199 49.656 46.0533C49.5436 45.857 49.5083 45.6688 49.5928 45.4313C49.8591 44.6781 50.093 43.912 50.3392 43.1508C51.9422 38.1971 53.5455 33.2451 55.1471 28.2913C55.2517 27.9652 55.358 27.6408 55.4609 27.3149C55.4734 27.2752 55.4826 27.2326 55.4979 27.1723C55.321 27.2198 55.1624 27.2657 55.0025 27.3069C53.9917 27.5601 52.9685 27.6599 51.9284 27.6028C50.2513 27.5127 48.6775 27.0379 47.1897 26.2561C46.4711 25.8777 45.7711 25.4646 45.0695 25.0579C44.4172 24.6797 43.7634 24.3109 43.054 24.0531C42.5939 23.8853 42.1262 23.765 41.6324 23.8044C41.4662 23.8172 41.303 23.8487 41.143 23.9216C41.1892 24.3884 41.0231 24.7557 40.6584 25.0279C40.6553 25.153 40.68 25.2622 40.7491 25.3617C40.7892 25.4189 40.8261 25.4852 40.8462 25.5518C40.8631 25.6118 40.8707 25.6847 40.8507 25.7416C40.8276 25.8065 40.8339 25.8571 40.8584 25.9142C40.9046 26.0203 40.943 26.1295 40.9939 26.2338C41.0307 26.3099 41.0262 26.3762 40.9922 26.4522C40.8554 26.7704 40.7277 27.0931 40.5891 27.4113C40.5522 27.4967 40.5554 27.5633 40.6047 27.6425C40.6984 27.7974 40.783 27.9574 40.8784 28.1282C40.7385 28.3768 40.5969 28.6269 40.4492 28.8879C40.4631 28.8991 40.4953 28.9243 40.5276 28.9482C40.7507 29.1158 40.8676 29.3421 40.8784 29.6254C40.8815 29.6809 40.8799 29.7363 40.8799 29.7917C40.8799 35.0176 40.8799 40.2435 40.8799 45.4679C40.8799 45.5674 40.8815 45.6688 40.8662 45.7652C40.8231 46.0313 40.6798 46.2322 40.4475 46.3729C40.5908 46.6279 40.7324 46.8794 40.8768 47.139C40.7816 47.3116 40.6876 47.4825 40.5816 47.674C40.8601 47.7072 41.1261 47.6709 41.4076 47.6978C41.3831 47.7626 41.3631 47.8196 41.34 47.8718C41.2154 48.1534 41.1616 48.4495 41.1522 48.758C41.1492 48.8561 41.1753 48.9243 41.2523 48.9844C41.3845 49.0887 41.5061 49.2076 41.6399 49.3105C41.7415 49.388 41.797 49.4892 41.8338 49.6064C41.9278 49.9023 41.9292 50.2061 41.9 50.51C41.8369 51.1416 41.6524 51.7428 41.4816 52.3491C41.3553 52.7953 41.2415 53.2432 41.1246 53.6928C41.1077 53.756 41.1093 53.8226 41.0985 53.9112C41.9584 53.9112 42.8047 53.9112 43.671 53.9112C43.671 54.2974 43.671 54.6598 43.671 55.0412C44.0093 55.0412 44.3295 55.0412 44.6742 55.0412C44.6742 55.3325 44.6742 55.6046 44.6742 55.891C44.9265 55.891 45.1572 55.891 45.4095 55.891C45.4095 56.138 45.4111 56.3738 45.4111 56.6096C45.4111 56.8469 45.4081 57.0859 45.4064 57.3234C41.8416 57.3234 38.2767 57.3234 34.7118 57.3234C34.7071 57.2742 34.6979 57.2253 34.6979 57.1762C34.6965 56.8057 34.6979 56.4339 34.6979 56.0636C34.6979 56.0145 34.6979 55.9654 34.6979 55.8959C34.9441 55.8959 35.1781 55.8959 35.4257 55.8959C35.4257 55.6077 35.4257 55.3387 35.4257 55.0475C35.7657 55.0475 36.0903 55.0475 36.4336 55.0475C36.4336 54.663 36.4336 54.3005 36.4336 53.9158C37.2997 53.9158 38.1459 53.9158 39.0167 53.9158C38.9936 53.7783 38.9844 53.6626 38.9552 53.5534C38.8091 53.0154 38.6598 52.4789 38.509 51.9423C38.386 51.5007 38.2675 51.0576 38.2166 50.6003C38.1813 50.2807 38.1705 49.9608 38.2597 49.6444C38.2998 49.502 38.366 49.3832 38.4859 49.2931C38.6197 49.1916 38.7413 49.073 38.8721 48.967C38.9274 48.9212 38.9475 48.8704 38.9491 48.7977C38.9536 48.4827 38.8952 48.182 38.7736 47.8939C38.7474 47.8338 38.7244 47.7736 38.6937 47.6946C38.9722 47.6946 39.2337 47.6946 39.5214 47.6946C39.4368 47.4871 39.3169 47.3242 39.229 47.1375C39.3706 46.8857 39.5122 46.6327 39.6552 46.3778C39.6154 46.3477 39.5737 46.3192 39.5367 46.2875C39.3491 46.1277 39.2429 45.9235 39.2306 45.672C39.2276 45.6008 39.2276 45.5279 39.2276 45.4567C39.2276 40.2418 39.2276 35.027 39.2276 29.8106C39.2276 29.7394 39.2276 29.6666 39.2306 29.5954C39.2429 29.3358 39.3536 29.13 39.5492 28.9702C39.5859 28.9402 39.6276 28.9117 39.6552 28.8911C39.5122 28.6364 39.3706 28.3863 39.2259 28.1299C39.3183 27.9652 39.4045 27.8006 39.4999 27.6408C39.5475 27.5633 39.5522 27.4967 39.5153 27.4113C39.3784 27.098 39.2537 26.7798 39.1168 26.4682C39.0782 26.3794 39.0721 26.3036 39.1168 26.2181C39.1536 26.1452 39.1783 26.0646 39.2137 25.99C39.2552 25.8983 39.2874 25.816 39.2415 25.7084C39.1984 25.6087 39.2629 25.5138 39.3136 25.4298C39.3876 25.3111 39.4521 25.194 39.446 25.0295C39.0952 24.7683 38.9168 24.4044 38.9599 23.9264C38.8153 23.8473 38.652 23.8219 38.4876 23.8076C38.0227 23.7664 37.5782 23.8693 37.1413 24.0228C36.5535 24.2303 35.9966 24.5056 35.4566 24.8174C34.7811 25.2082 34.1118 25.6104 33.4302 25.9886C32.4348 26.544 31.3962 26.9951 30.2915 27.2769C29.3038 27.5284 28.3021 27.6502 27.2851 27.6156C26.5036 27.5885 25.7312 27.4827 24.9742 27.2737C24.9296 27.2609 24.8834 27.2515 24.8111 27.234C24.8342 27.3117 24.8496 27.3686 24.8681 27.4241C25.6127 29.7506 26.3558 32.0785 27.1051 34.4051C28.2882 38.0753 29.4714 41.7439 30.667 45.4093C30.7577 45.6862 30.7069 45.9015 30.5639 46.1214C30.4331 46.3223 30.2576 46.4775 30.067 46.6136C29.633 46.9223 29.15 47.1232 28.6529 47.291C28.5452 47.3273 28.4376 47.3605 28.3268 47.3971C28.3221 47.4191 28.316 47.4397 28.3144 47.4619C28.2806 47.8244 28.0606 48.0602 27.7084 48.106C27.6497 48.114 27.5899 48.114 27.5314 48.114C25.265 48.114 22.9972 48.114 20.7308 48.114C20.6555 48.114 20.5801 48.1108 20.5062 48.0997C20.1893 48.0491 19.9769 47.8164 19.9431 47.4871C19.94 47.4603 19.9369 47.4334 19.9323 47.4034C19.7261 47.3322 19.52 47.2673 19.3184 47.1913C18.9476 47.0535 18.5861 46.8969 18.263 46.6627C18.0922 46.5392 17.9368 46.392 17.786 46.2448C17.7168 46.1783 17.6675 46.0865 17.6214 46.001C17.5245 45.8206 17.5045 45.6419 17.5737 45.4313C19.2507 40.2703 20.9216 35.1062 22.5941 29.9436C22.9141 28.9576 23.2341 27.9701 23.5526 26.9839C23.5741 26.9159 23.5941 26.8479 23.6187 26.7672C23.5618 26.734 23.508 26.7006 23.4526 26.6691C23.0341 26.4302 22.6587 26.1389 22.3571 25.7527C22.1771 25.5218 22.0294 25.2731 21.9709 24.9772C21.9617 24.9281 21.954 24.8792 21.9494 24.83C21.8955 24.254 22.2432 24.0688 22.5864 24.0214C22.7156 24.0039 22.8556 24.0245 22.9833 24.0608C23.1925 24.1211 23.2756 24.2683 23.2433 24.4913C23.2141 24.6828 23.1679 24.8712 23.1356 25.061C23.1202 25.1482 23.1156 25.2368 23.1156 25.3254C23.1141 25.7733 23.2879 26.0598 23.6972 26.275C23.8311 26.1009 23.9911 25.9537 24.2372 26.0203C24.4665 26.0835 24.568 26.2687 24.6357 26.4902C24.8081 26.514 24.9773 26.5014 25.1465 26.4823C25.7774 26.4111 26.3728 26.2053 26.9667 25.9869C27.6082 25.7511 28.1991 25.4092 28.7945 25.077C29.5223 24.6686 30.2484 24.2603 30.9823 23.8647C31.8347 23.4057 32.7316 23.0701 33.6841 22.896C34.4442 22.7568 35.2118 22.7062 35.9827 22.7299C36.6628 22.7505 37.335 22.828 37.9935 23.01C38.3844 23.1176 38.7599 23.2633 39.1213 23.4468C39.2229 23.3488 39.3261 23.2616 39.4153 23.1604C39.5106 23.0527 39.5244 22.912 39.5214 22.7711C39.5214 22.752 39.503 22.7314 39.4891 22.7173C39.4707 22.6982 39.4476 22.6793 39.4245 22.6682C39.1845 22.5604 39.1691 22.3532 39.1892 22.1268C39.2245 21.6949 39.3136 21.2724 39.429 20.8576C39.6137 20.1993 39.8107 19.5439 40.003 18.8873C40.0152 18.8461 40.0352 18.8081 40.063 18.7369C40.166 19.0628 40.2614 19.3558 40.3491 19.6516C40.5522 20.3228 40.7477 20.9954 40.8662 21.6886C40.9015 21.9006 40.9077 22.1174 40.923 22.3311C40.9307 22.4512 40.8831 22.5464 40.7753 22.6033C40.7616 22.6113 40.7477 22.6207 40.7354 22.6318C40.6845 22.6839 40.5908 22.6967 40.5922 22.7948C40.5922 22.9246 40.6077 23.0543 40.6937 23.1524C40.783 23.2538 40.8862 23.3425 40.9908 23.4437C41.0723 23.404 41.16 23.3614 41.2476 23.3219C41.8432 23.0527 42.4678 22.8945 43.111 22.8091C43.8449 22.7108 44.5818 22.703 45.3188 22.752C46.665 22.8423 47.9342 23.2127 49.1252 23.8599C50.1236 24.4027 51.1084 24.9741 52.1086 25.5121C52.9362 25.9585 53.8117 26.2781 54.7348 26.4508C55.0272 26.5045 55.3226 26.5171 55.6273 26.4886C55.6949 26.2939 55.7795 26.1089 55.9887 26.0312C56.2073 25.9506 56.3748 26.0455 56.5226 26.2118C56.7657 26.0646 56.9195 25.8651 56.9749 25.5881C57.0288 25.3206 56.9874 25.0596 56.9334 24.7983C56.9103 24.6908 56.8858 24.5831 56.8689 24.4739C56.8411 24.292 56.9103 24.1606 57.0673 24.0799C57.3427 23.9405 57.7689 24.0086 57.9889 24.2272C58.1074 24.3458 58.1597 24.493 58.1673 24.6591C58.1797 24.8981 58.1227 25.1196 58.0181 25.3317C57.8197 25.737 57.5212 26.0518 57.1735 26.3225C57.0366 26.4285 56.8903 26.5234 56.7442 26.6169C56.6858 26.6549 56.6549 26.6929 56.6396 26.7672C56.6088 26.9144 56.6319 27.0457 56.678 27.1866C58.5704 32.9506 60.4583 38.7162 62.3492 44.4803C62.4585 44.8156 62.5692 45.1512 62.6816 45.4851C62.6908 45.5136 62.7108 45.5374 62.7261 45.5642C62.7261 45.6403 62.7261 45.7177 62.7261 45.7938ZM29.6853 45.5659C29.6714 45.5088 29.6639 45.4773 29.6547 45.4473C27.8205 39.7624 25.9881 34.0775 24.1542 28.3926C24.1526 28.3879 24.1465 28.3863 24.1418 28.3831C24.1418 28.3831 24.1326 28.3831 24.1218 28.3814C22.2679 34.1027 20.4139 39.8273 18.5553 45.5642C22.2725 45.5659 25.9681 45.5659 29.6853 45.5659ZM50.5852 45.55C50.7638 45.5897 61.5538 45.5817 61.6784 45.5422C59.8228 39.8842 57.9689 34.2278 56.1133 28.5698C56.1027 28.5698 56.0902 28.5715 56.0796 28.5715C54.2471 34.231 52.4163 39.8905 50.5852 45.55Z" fill="#DBBD8A"/>
<path d="M8.59705 10.3607C9.00631 10.3861 9.41404 10.4113 9.8233 10.4367C10.7865 10.4968 11.7496 10.5554 12.7127 10.6171C14.7252 10.7469 16.2314 11.6933 17.1685 13.5513C17.2931 13.7983 17.4331 14.0419 17.5269 14.3014C17.7993 15.0597 18.3547 15.4442 19.0932 15.6008C19.3625 15.6577 19.6332 15.7069 19.904 15.7592C19.9163 15.7338 19.9287 15.7086 19.941 15.6832C19.8871 15.6071 19.8317 15.5328 19.7809 15.4536C19.484 14.99 19.2132 14.5057 18.8855 14.0658C18.667 13.7729 18.3947 13.5022 18.0977 13.2966C17.3192 12.7584 16.6422 12.1381 16.2145 11.2628C15.596 9.99993 15.5453 8.66732 15.7991 7.31245C15.9314 6.60667 16.1299 5.91516 16.3084 5.17746C16.4253 5.24571 16.4869 5.26776 16.5299 5.30892C17.4362 6.19529 18.2916 7.12262 18.9132 8.25427C19.5578 9.43022 19.7471 10.6805 19.5179 12.0035C19.4963 12.1238 19.4732 12.2441 19.4471 12.3644C19.2701 13.1731 19.4148 13.8837 19.9117 14.5658C20.8225 15.8161 22.0165 16.3749 23.512 16.3083C23.6597 16.302 23.8058 16.2608 24.0397 16.2212C23.8889 16.0756 23.8012 15.9744 23.6981 15.8921C22.0503 14.5706 21.2718 12.825 21.2949 10.6868C21.2964 10.5539 21.2826 10.4082 21.3272 10.2912C21.3534 10.2229 21.5149 10.1343 21.5626 10.1597C22.8011 10.826 24.052 11.4764 24.9844 12.6034C25.5536 13.2918 25.9044 14.0799 26.0814 14.9599C26.1398 15.2544 26.2029 15.5486 26.2814 15.8383C26.366 16.15 26.566 16.3875 26.8753 16.4461C27.7584 16.6153 28.6478 16.7545 29.5355 16.9017C29.5723 16.908 29.614 16.8812 29.6969 16.8574C29.4877 16.3369 29.1708 15.9459 28.6523 15.8367C28.3307 15.7686 27.9693 15.805 27.6446 15.881C27.3476 15.9507 27.2061 15.8115 27.0907 15.604C26.9691 15.3841 26.8968 15.1008 27.1338 14.9425C27.2476 14.8665 27.4908 14.952 27.6585 15.012C28.0583 15.1561 28.4478 15.3287 28.8417 15.4885C28.8646 15.4568 28.8877 15.4253 28.9124 15.3936C28.8723 15.3001 28.8415 15.1989 28.7892 15.1134C28.5599 14.7384 28.3123 14.376 28.097 13.9929C28.0091 13.8363 27.9507 13.6416 27.94 13.461C27.9245 13.1906 28.1707 12.9879 28.4339 13.0068C28.877 13.0385 29.2401 13.6796 29.1138 14.1179C29.0354 14.3917 28.9878 14.7161 29.057 14.9837C29.2323 15.6689 29.651 16.2039 30.2833 16.5884C30.2525 16.4366 30.2263 16.2829 30.1893 16.1325C30.1125 15.8192 29.9985 15.5108 29.9648 15.1941C29.9448 15.0089 30.0247 14.7936 30.1201 14.6292C30.1509 14.5752 30.4709 14.6021 30.4895 14.6529C30.5555 14.8459 30.5771 15.0643 30.5663 15.2716C30.5463 15.612 30.4341 15.9522 30.4586 16.2863C30.5062 16.9414 30.8325 17.4131 31.4818 17.6012C31.7879 17.6901 32.0895 17.7976 32.4525 17.8673C31.1124 15.2859 31.2401 12.7632 32.5618 10.2309C32.6342 10.2832 32.6773 10.3006 32.7004 10.3338C33.4588 11.3926 34.248 12.4308 34.7682 13.6494C35.3744 15.0723 35.3928 16.4998 34.822 17.9399C34.6789 18.3009 34.5559 18.6711 34.4405 19.043C34.4113 19.1365 34.4113 19.2917 34.4667 19.3503C34.9883 19.8946 35.5252 20.4248 36.0944 20.9422C36.1253 20.2555 36.4405 19.6682 36.3929 18.9498C36.2591 16.9446 37.0759 15.343 38.6823 14.175C38.9454 13.9835 39.0993 14.0561 39.2609 14.3079C39.9701 15.4142 39.8332 17.1581 38.9176 18.0888C38.4808 18.5336 37.9853 18.9198 37.516 19.3311C37.393 19.4389 37.2545 19.5321 37.1391 19.6493C36.3852 20.42 36.3576 21.0119 36.9914 21.884C37.2821 22.2828 37.5391 22.7084 37.8023 23.128C37.853 23.2086 37.8914 23.3178 37.8899 23.4113C37.8869 23.5077 37.8284 23.6043 37.7929 23.6992C37.7144 23.6534 37.6145 23.6249 37.5606 23.5585C36.7313 22.5423 35.9083 21.523 35.0865 20.5023C34.6973 20.0197 34.1757 19.7536 33.622 19.5481C33.2943 19.4261 32.9864 19.529 32.6834 19.681C32.2558 19.8962 31.8296 20.1224 31.3834 20.2887C30.351 20.6717 29.3094 20.5165 28.2723 20.2856C28.2447 20.2793 28.223 20.2459 28.1785 20.2095C28.2108 20.1447 28.2308 20.0703 28.2753 20.0163C29.18 18.9387 30.7418 18.2392 32.2249 19.0193C32.4589 19.1428 32.7418 19.1682 33.0019 19.2377C33.0203 19.1934 33.0373 19.1508 33.0557 19.1064C32.9112 19.0067 32.7711 18.8992 32.6203 18.8104C31.991 18.4385 31.3695 18.0477 30.7218 17.7138C30.3095 17.5 29.8647 17.3385 29.417 17.2153C28.8846 17.0681 28.3354 16.9809 27.7907 16.8812C26.7691 16.6945 26.0829 17.0458 25.5921 17.9908C24.9398 19.2488 23.175 20.1289 21.8057 19.882C21.4841 19.8234 21.4611 19.7679 21.5934 19.4626C22.2504 17.9542 23.5058 17.3228 24.9782 16.9983C25.3321 16.9209 25.6798 16.8148 26.0306 16.7214C26.0275 16.685 26.0245 16.6485 26.0229 16.6122C25.9506 16.5979 25.8768 16.5727 25.8045 16.5727C24.6228 16.5584 23.4412 16.5536 22.2596 16.533C21.4287 16.5187 20.8318 16.9557 20.3687 17.5935C20.2333 17.7801 20.221 18.0934 20.221 18.3467C20.2225 18.7457 19.9733 18.9861 19.6332 18.8549C19.3009 18.7283 19.2578 18.4084 19.5055 18.1506C19.8025 17.8404 20.0702 17.4985 20.3871 17.1264C19.6086 17.0046 18.7732 17.6583 18.707 18.3389C18.6839 18.5779 18.5639 18.7726 18.3285 18.7583C18.1747 18.7488 17.9823 18.6331 17.8916 18.5034C17.7562 18.3055 17.8316 18.0888 18.0408 17.9622C18.5454 17.6583 19.0578 17.3656 19.5625 17.0632C19.764 16.9429 19.9579 16.8054 20.2271 16.6279C19.2301 16.2529 18.3685 15.7369 17.3469 16.3509C16.393 16.924 15.3499 16.878 14.3159 16.5742C13.1081 16.218 12.1189 15.5105 11.3742 14.4789C10.4357 13.1809 9.53712 11.8548 8.62014 10.5411C8.59552 10.5048 8.56474 10.4716 8.53705 10.4382C8.55243 10.4145 8.57551 10.3876 8.59705 10.3607Z" fill="#DBBD8A"/>
<path d="M71.6487 10.3607C71.2395 10.3861 70.8317 10.4113 70.4224 10.4367C69.4593 10.4968 68.4961 10.5554 67.533 10.6171C65.5205 10.7469 64.0143 11.6933 63.0773 13.5513C62.9527 13.7983 62.8125 14.0419 62.7188 14.3014C62.4464 15.0597 61.8911 15.4442 61.1525 15.6008C60.8832 15.6577 60.6125 15.7069 60.3418 15.7592C60.3293 15.7338 60.317 15.7086 60.3048 15.6832C60.3585 15.6071 60.4139 15.5328 60.4648 15.4536C60.7616 14.99 61.0326 14.5057 61.3603 14.0658C61.5787 13.7729 61.851 13.5022 62.1479 13.2966C62.9265 12.7584 63.6034 12.1381 64.0313 11.2628C64.6497 9.99993 64.7004 8.66732 64.4466 7.31245C64.3142 6.60667 64.1159 5.91516 63.9373 5.17746C63.8204 5.24571 63.7589 5.26776 63.7158 5.30892C62.8095 6.19529 61.954 7.12262 61.3325 8.25427C60.6879 9.43022 60.4987 10.6805 60.7279 12.0035C60.7494 12.1238 60.7725 12.2441 60.7986 12.3644C60.9756 13.1731 60.8309 13.8837 60.334 14.5658C59.4232 15.8161 58.2292 16.3749 56.7338 16.3083C56.5861 16.302 56.4398 16.2608 56.206 16.2212C56.3568 16.0756 56.4445 15.9744 56.5475 15.8921C58.1955 14.5706 58.9739 12.825 58.9508 10.6868C58.9492 10.5539 58.9631 10.4082 58.9185 10.2912C58.8924 10.2229 58.7308 10.1343 58.6832 10.1597C57.4446 10.826 56.1938 11.4764 55.2613 12.6034C54.6921 13.2918 54.3413 14.0799 54.1643 14.9599C54.1059 15.2544 54.0428 15.5486 53.9643 15.8383C53.8797 16.15 53.6781 16.3875 53.3704 16.4461C52.4873 16.6153 51.598 16.7545 50.7102 16.9017C50.6732 16.908 50.6318 16.8812 50.5486 16.8574C50.758 16.3369 51.0749 15.9459 51.5935 15.8367C51.9148 15.7686 52.2765 15.805 52.6011 15.881C52.898 15.9507 53.0396 15.8115 53.155 15.604C53.2766 15.3841 53.3489 15.1008 53.1119 14.9425C52.9981 14.8665 52.755 14.952 52.5872 15.012C52.1872 15.1561 51.798 15.3287 51.4041 15.4885C51.381 15.4568 51.3579 15.4253 51.3334 15.3936C51.3734 15.3001 51.4041 15.1989 51.4564 15.1134C51.6856 14.7384 51.9334 14.376 52.1488 13.9929C52.2364 13.8363 52.2949 13.6416 52.3057 13.461C52.321 13.1906 52.075 12.9879 51.8119 13.0068C51.3687 13.0385 51.0056 13.6796 51.1317 14.1179C51.2102 14.3917 51.258 14.7161 51.1887 14.9837C51.0134 15.6689 50.5948 16.2039 49.9624 16.5884C49.9933 16.4366 50.0194 16.2829 50.0564 16.1325C50.1332 15.8192 50.247 15.5108 50.2809 15.1941C50.301 15.0089 50.2209 14.7936 50.1255 14.6292C50.0948 14.5752 49.7749 14.6021 49.7563 14.6529C49.6901 14.8459 49.6686 15.0643 49.6794 15.2716C49.6995 15.612 49.8116 15.9522 49.7871 16.2863C49.7393 16.9414 49.4132 17.4131 48.7639 17.6012C48.4579 17.6901 48.1563 17.7976 47.793 17.8673C49.1331 15.2859 49.0054 12.7632 47.6839 10.2309C47.6116 10.2832 47.5685 10.3006 47.5454 10.3338C46.7868 11.3926 45.9975 12.4308 45.4775 13.6494C44.8713 15.0723 44.8529 16.4998 45.4236 17.9399C45.5668 18.3009 45.6898 18.6711 45.8052 19.043C45.8345 19.1365 45.8345 19.2917 45.7791 19.3503C45.2575 19.8946 44.7205 20.4248 44.1513 20.9422C44.1205 20.2555 43.805 19.6682 43.8528 18.9498C43.9866 16.9446 43.1696 15.343 41.5635 14.175C41.3003 13.9835 41.1465 14.0561 40.9849 14.3079C40.2757 15.4142 40.4126 17.1581 41.3279 18.0888C41.7649 18.5336 42.2604 18.9198 42.7297 19.3311C42.8527 19.4389 42.9912 19.5321 43.1067 19.6493C43.8606 20.42 43.8882 21.0119 43.2544 21.884C42.9634 22.2828 42.7066 22.7084 42.4435 23.128C42.3928 23.2086 42.3542 23.3178 42.3558 23.4113C42.3589 23.5077 42.4173 23.6043 42.4527 23.6992C42.5311 23.6534 42.6312 23.6249 42.685 23.5585C43.5143 22.5423 44.3375 21.523 45.159 20.5023C45.5482 20.0197 46.0698 19.7536 46.6237 19.5481C46.9514 19.4261 47.2591 19.529 47.5623 19.681C47.99 19.8962 48.4162 20.1224 48.8624 20.2887C49.8948 20.6717 50.9364 20.5165 51.9735 20.2856C52.0011 20.2793 52.0227 20.2459 52.0673 20.2095C52.035 20.1447 52.015 20.0703 51.9702 20.0163C51.0657 18.9387 49.5039 18.2392 48.0208 19.0193C47.7869 19.1428 47.5039 19.1682 47.2438 19.2377C47.2254 19.1934 47.2085 19.1508 47.1899 19.1064C47.3345 19.0067 47.4747 18.8992 47.6255 18.8104C48.2548 18.4385 48.8763 18.0477 49.524 17.7138C49.9363 17.5 50.3811 17.3385 50.8287 17.2153C51.361 17.0681 51.9103 16.9809 52.4551 16.8812C53.4766 16.6945 54.1627 17.0458 54.6537 17.9908C55.3058 19.2488 57.0707 20.1289 58.44 19.882C58.7616 19.8234 58.7847 19.7679 58.6523 19.4626C57.9954 17.9542 56.7399 17.3228 55.2674 16.9983C54.9136 16.9209 54.5658 16.8148 54.215 16.7214C54.2181 16.685 54.2213 16.6485 54.2228 16.6122C54.2951 16.5979 54.3689 16.5727 54.4412 16.5727C55.6229 16.5584 56.8045 16.5536 57.986 16.533C58.817 16.5187 59.414 16.9557 59.877 17.5935C60.0124 17.7801 60.0247 18.0934 60.0247 18.3467C60.0232 18.7457 60.2725 18.9861 60.6125 18.8549C60.9447 18.7283 60.9878 18.4084 60.7402 18.1506C60.4433 17.8404 60.1755 17.4985 59.8586 17.1264C60.637 17.0046 61.4724 17.6583 61.5386 18.3389C61.5617 18.5779 61.6819 18.7726 61.9172 18.7583C62.0711 18.7488 62.2633 18.6331 62.3541 18.5034C62.4895 18.3055 62.4141 18.0888 62.2049 17.9622C61.7003 17.6583 61.1878 17.3656 60.6818 17.0632C60.4801 16.9429 60.2862 16.8054 60.0171 16.6279C61.014 16.2529 61.8756 15.7369 62.8973 16.3509C63.8511 16.924 64.8943 16.878 65.9281 16.5742C67.136 16.218 68.1253 15.5105 68.87 14.4789C69.8085 13.1809 70.707 11.8548 71.624 10.5411C71.6487 10.5048 71.6794 10.4716 71.7071 10.4382C71.6933 10.4145 71.6702 10.3876 71.6487 10.3607Z" fill="#DBBD8A"/>
<rect x="78" y="32" width="127.231" height="2" fill="#D9D9D9"/>
<path d="M104.476 15.48H105.184L108.724 24H107.836L106.732 21.336H102.904L101.812 24H100.912L104.476 15.48ZM106.54 20.676L104.824 16.464L103.084 20.676H106.54ZM109.765 24V17.748H110.581V20.436H114.157V17.748H114.973V24H114.157V21.168H110.581V24H109.765ZM116.761 24V17.748H117.577V20.436H121.153V17.748H121.969V24H121.153V21.168H117.577V24H116.761ZM123.265 22.2C123.265 21.808 123.377 21.472 123.601 21.192C123.825 20.904 124.133 20.684 124.525 20.532C124.925 20.372 125.385 20.292 125.905 20.292C126.209 20.292 126.525 20.316 126.853 20.364C127.181 20.412 127.473 20.484 127.729 20.58V20.052C127.729 19.524 127.573 19.104 127.261 18.792C126.949 18.48 126.517 18.324 125.965 18.324C125.629 18.324 125.297 18.388 124.969 18.516C124.649 18.636 124.313 18.816 123.961 19.056L123.649 18.48C124.057 18.2 124.457 17.992 124.849 17.856C125.241 17.712 125.641 17.64 126.049 17.64C126.817 17.64 127.425 17.86 127.873 18.3C128.321 18.74 128.545 19.348 128.545 20.124V23.016C128.545 23.128 128.569 23.212 128.617 23.268C128.665 23.316 128.741 23.344 128.845 23.352V24C128.757 24.008 128.681 24.016 128.617 24.024C128.553 24.032 128.505 24.032 128.473 24.024C128.273 24.016 128.121 23.952 128.017 23.832C127.913 23.712 127.857 23.584 127.849 23.448L127.837 22.992C127.557 23.352 127.193 23.632 126.745 23.832C126.297 24.024 125.841 24.12 125.377 24.12C124.977 24.12 124.613 24.036 124.285 23.868C123.965 23.692 123.713 23.46 123.529 23.172C123.353 22.876 123.265 22.552 123.265 22.2ZM127.453 22.68C127.541 22.568 127.609 22.46 127.657 22.356C127.705 22.252 127.729 22.16 127.729 22.08V21.168C127.457 21.064 127.173 20.984 126.877 20.928C126.589 20.872 126.297 20.844 126.001 20.844C125.417 20.844 124.945 20.96 124.585 21.192C124.225 21.424 124.045 21.74 124.045 22.14C124.045 22.372 124.105 22.592 124.225 22.8C124.345 23 124.521 23.168 124.753 23.304C124.985 23.432 125.257 23.496 125.569 23.496C125.961 23.496 126.325 23.42 126.661 23.268C127.005 23.116 127.269 22.92 127.453 22.68ZM139.295 24V16.224H135.815L135.767 18.024C135.727 19.2 135.643 20.176 135.515 20.952C135.387 21.728 135.207 22.34 134.975 22.788C134.743 23.228 134.459 23.544 134.123 23.736C133.787 23.92 133.387 24.012 132.923 24.012V23.268C133.235 23.268 133.511 23.188 133.751 23.028C133.991 22.868 134.195 22.588 134.363 22.188C134.531 21.788 134.663 21.236 134.759 20.532C134.863 19.82 134.931 18.92 134.963 17.832L135.035 15.48H140.123V24H139.295ZM141.582 22.2C141.582 21.808 141.694 21.472 141.918 21.192C142.142 20.904 142.45 20.684 142.842 20.532C143.242 20.372 143.702 20.292 144.222 20.292C144.526 20.292 144.842 20.316 145.17 20.364C145.498 20.412 145.79 20.484 146.046 20.58V20.052C146.046 19.524 145.89 19.104 145.578 18.792C145.266 18.48 144.834 18.324 144.282 18.324C143.946 18.324 143.614 18.388 143.286 18.516C142.966 18.636 142.63 18.816 142.278 19.056L141.966 18.48C142.374 18.2 142.774 17.992 143.166 17.856C143.558 17.712 143.958 17.64 144.366 17.64C145.134 17.64 145.742 17.86 146.19 18.3C146.638 18.74 146.862 19.348 146.862 20.124V23.016C146.862 23.128 146.886 23.212 146.934 23.268C146.982 23.316 147.058 23.344 147.162 23.352V24C147.074 24.008 146.998 24.016 146.934 24.024C146.87 24.032 146.822 24.032 146.79 24.024C146.59 24.016 146.438 23.952 146.334 23.832C146.23 23.712 146.174 23.584 146.166 23.448L146.154 22.992C145.874 23.352 145.51 23.632 145.062 23.832C144.614 24.024 144.158 24.12 143.694 24.12C143.294 24.12 142.93 24.036 142.602 23.868C142.282 23.692 142.03 23.46 141.846 23.172C141.67 22.876 141.582 22.552 141.582 22.2ZM145.77 22.68C145.858 22.568 145.926 22.46 145.974 22.356C146.022 22.252 146.046 22.16 146.046 22.08V21.168C145.774 21.064 145.49 20.984 145.194 20.928C144.906 20.872 144.614 20.844 144.318 20.844C143.734 20.844 143.262 20.96 142.902 21.192C142.542 21.424 142.362 21.74 142.362 22.14C142.362 22.372 142.422 22.592 142.542 22.8C142.662 23 142.838 23.168 143.07 23.304C143.302 23.432 143.574 23.496 143.886 23.496C144.278 23.496 144.642 23.42 144.978 23.268C145.322 23.116 145.586 22.92 145.77 22.68ZM148.613 24V17.748H153.641V24H152.825V18.48H149.429V24H148.613ZM157.005 24V18.48H154.773V17.748H160.053V18.48H157.821V24H157.005ZM163.864 24.12C163.416 24.12 163 24.036 162.616 23.868C162.232 23.692 161.9 23.456 161.62 23.16C161.34 22.856 161.12 22.508 160.96 22.116C160.808 21.724 160.732 21.304 160.732 20.856C160.732 20.272 160.864 19.736 161.128 19.248C161.4 18.76 161.772 18.372 162.244 18.084C162.716 17.788 163.252 17.64 163.852 17.64C164.468 17.64 165.004 17.788 165.46 18.084C165.924 18.38 166.288 18.772 166.552 19.26C166.816 19.74 166.948 20.268 166.948 20.844C166.948 20.908 166.948 20.972 166.948 21.036C166.948 21.092 166.944 21.136 166.936 21.168H161.584C161.624 21.616 161.748 22.016 161.956 22.368C162.172 22.712 162.448 22.988 162.784 23.196C163.128 23.396 163.5 23.496 163.9 23.496C164.308 23.496 164.692 23.392 165.052 23.184C165.42 22.976 165.676 22.704 165.82 22.368L166.528 22.56C166.4 22.856 166.204 23.124 165.94 23.364C165.676 23.604 165.364 23.792 165.004 23.928C164.652 24.056 164.272 24.12 163.864 24.12ZM161.56 20.58H166.18C166.148 20.124 166.024 19.724 165.808 19.38C165.6 19.036 165.324 18.768 164.98 18.576C164.644 18.376 164.272 18.276 163.864 18.276C163.456 18.276 163.084 18.376 162.748 18.576C162.412 18.768 162.136 19.04 161.92 19.392C161.712 19.736 161.592 20.132 161.56 20.58ZM168.195 24V17.748H171.315C171.667 17.748 171.963 17.824 172.203 17.976C172.443 18.12 172.623 18.308 172.743 18.54C172.871 18.772 172.935 19.02 172.935 19.284C172.935 19.62 172.855 19.924 172.695 20.196C172.535 20.46 172.303 20.66 171.999 20.796C172.359 20.9 172.651 21.088 172.875 21.36C173.099 21.632 173.211 21.96 173.211 22.344C173.211 22.68 173.127 22.972 172.959 23.22C172.799 23.468 172.575 23.66 172.287 23.796C172.007 23.932 171.683 24 171.315 24H168.195ZM168.975 23.412H171.291C171.499 23.412 171.687 23.36 171.855 23.256C172.031 23.144 172.167 23 172.263 22.824C172.367 22.648 172.419 22.464 172.419 22.272C172.419 22.064 172.371 21.876 172.275 21.708C172.179 21.532 172.051 21.392 171.891 21.288C171.731 21.184 171.547 21.132 171.339 21.132H168.975V23.412ZM168.975 20.568H171.099C171.307 20.568 171.491 20.512 171.651 20.4C171.811 20.288 171.935 20.144 172.023 19.968C172.111 19.792 172.155 19.608 172.155 19.416C172.155 19.128 172.059 18.876 171.867 18.66C171.683 18.444 171.443 18.336 171.147 18.336H168.975V20.568ZM174.125 22.2C174.125 21.808 174.237 21.472 174.461 21.192C174.685 20.904 174.993 20.684 175.385 20.532C175.785 20.372 176.245 20.292 176.765 20.292C177.069 20.292 177.385 20.316 177.713 20.364C178.041 20.412 178.333 20.484 178.589 20.58V20.052C178.589 19.524 178.433 19.104 178.121 18.792C177.809 18.48 177.377 18.324 176.825 18.324C176.489 18.324 176.157 18.388 175.829 18.516C175.509 18.636 175.173 18.816 174.821 19.056L174.509 18.48C174.917 18.2 175.317 17.992 175.709 17.856C176.101 17.712 176.501 17.64 176.909 17.64C177.677 17.64 178.285 17.86 178.733 18.3C179.181 18.74 179.405 19.348 179.405 20.124V23.016C179.405 23.128 179.429 23.212 179.477 23.268C179.525 23.316 179.601 23.344 179.705 23.352V24C179.617 24.008 179.541 24.016 179.477 24.024C179.413 24.032 179.365 24.032 179.333 24.024C179.133 24.016 178.981 23.952 178.877 23.832C178.773 23.712 178.717 23.584 178.709 23.448L178.697 22.992C178.417 23.352 178.053 23.632 177.605 23.832C177.157 24.024 176.701 24.12 176.237 24.12C175.837 24.12 175.473 24.036 175.145 23.868C174.825 23.692 174.573 23.46 174.389 23.172C174.213 22.876 174.125 22.552 174.125 22.2ZM178.313 22.68C178.401 22.568 178.469 22.46 178.517 22.356C178.565 22.252 178.589 22.16 178.589 22.08V21.168C178.317 21.064 178.033 20.984 177.737 20.928C177.449 20.872 177.157 20.844 176.861 20.844C176.277 20.844 175.805 20.96 175.445 21.192C175.085 21.424 174.905 21.74 174.905 22.14C174.905 22.372 174.965 22.592 175.085 22.8C175.205 23 175.381 23.168 175.613 23.304C175.845 23.432 176.117 23.496 176.429 23.496C176.821 23.496 177.185 23.42 177.521 23.268C177.865 23.116 178.129 22.92 178.313 22.68Z" fill="#557A95"/>
<path d="M101.13 46.05C100.53 46.05 100 45.9133 99.54 45.64C99.08 45.36 98.71 44.9733 98.43 44.48C98.1567 43.9867 98.0033 43.41 97.97 42.75H96.59V46H95.89V38.9H96.59V42.12H97.97C98.0167 41.4467 98.18 40.8667 98.46 40.38C98.7467 39.8933 99.12 39.5167 99.58 39.25C100.047 38.9833 100.563 38.85 101.13 38.85C101.777 38.85 102.343 39.0067 102.83 39.32C103.317 39.6267 103.697 40.05 103.97 40.59C104.243 41.13 104.38 41.7533 104.38 42.46C104.38 43.2133 104.237 43.8567 103.95 44.39C103.663 44.9233 103.273 45.3333 102.78 45.62C102.293 45.9067 101.743 46.05 101.13 46.05ZM101.13 45.42C101.65 45.42 102.097 45.2933 102.47 45.04C102.85 44.78 103.143 44.4267 103.35 43.98C103.563 43.5333 103.67 43.0233 103.67 42.45C103.67 41.8433 103.56 41.32 103.34 40.88C103.12 40.4333 102.82 40.09 102.44 39.85C102.06 39.61 101.623 39.49 101.13 39.49C100.623 39.49 100.183 39.6167 99.81 39.87C99.4433 40.1167 99.1567 40.4633 98.95 40.91C98.75 41.3567 98.65 41.87 98.65 42.45C98.65 43.05 98.7533 43.5733 98.96 44.02C99.1733 44.4667 99.4667 44.8133 99.84 45.06C100.213 45.3 100.643 45.42 101.13 45.42ZM108.176 46.1C107.742 46.1 107.352 45.9867 107.006 45.76C106.666 45.5333 106.396 45.2533 106.196 44.92V48.13H105.516V40.79H106.126V41.8C106.332 41.4733 106.609 41.21 106.956 41.01C107.302 40.8033 107.672 40.7 108.066 40.7C108.426 40.7 108.756 40.7767 109.056 40.93C109.356 41.0767 109.616 41.2767 109.836 41.53C110.056 41.7833 110.226 42.0733 110.346 42.4C110.472 42.72 110.536 43.0533 110.536 43.4C110.536 43.8867 110.436 44.3367 110.236 44.75C110.042 45.1567 109.769 45.4833 109.416 45.73C109.062 45.9767 108.649 46.1 108.176 46.1ZM107.986 45.5C108.272 45.5 108.529 45.4433 108.756 45.33C108.982 45.21 109.176 45.05 109.336 44.85C109.502 44.65 109.629 44.4267 109.716 44.18C109.802 43.9267 109.846 43.6667 109.846 43.4C109.846 43.12 109.796 42.8533 109.696 42.6C109.602 42.3467 109.466 42.1233 109.286 41.93C109.106 41.7367 108.899 41.5833 108.666 41.47C108.432 41.3567 108.179 41.3 107.906 41.3C107.732 41.3 107.552 41.3333 107.366 41.4C107.179 41.4667 106.999 41.5633 106.826 41.69C106.659 41.81 106.519 41.9467 106.406 42.1C106.292 42.2533 106.222 42.4167 106.196 42.59V44.19C106.302 44.4367 106.446 44.66 106.626 44.86C106.806 45.0533 107.012 45.21 107.246 45.33C107.486 45.4433 107.732 45.5 107.986 45.5ZM111.678 46V40.8H112.358V45.08L115.528 40.79H116.138V46H115.458V41.79L112.338 46H111.678ZM117.045 47.21V45.39H117.135C117.288 45.39 117.428 45.3433 117.555 45.25C117.682 45.1567 117.795 44.9933 117.895 44.76C117.995 44.5267 118.075 44.2067 118.135 43.8C118.195 43.3867 118.235 42.8667 118.255 42.24L118.305 40.79H121.695V45.39H122.395V47.21H121.785V46H117.645V47.21H117.045ZM118.165 45.39H121.015V41.4H118.915L118.885 42.3C118.865 42.92 118.822 43.44 118.755 43.86C118.695 44.2733 118.615 44.6033 118.515 44.85C118.422 45.09 118.305 45.27 118.165 45.39ZM123.416 46V40.8H124.096V45.08L127.266 40.79H127.876V46H127.196V41.79L124.076 46H123.416ZM132.343 46V43.82C132.13 43.92 131.907 43.9967 131.673 44.05C131.44 44.0967 131.19 44.12 130.923 44.12C130.35 44.12 129.917 43.9733 129.623 43.68C129.337 43.3867 129.193 42.9367 129.193 42.33V40.79H129.873V42.24C129.873 42.7067 129.967 43.0467 130.153 43.26C130.347 43.4733 130.653 43.58 131.073 43.58C131.307 43.58 131.54 43.5533 131.773 43.5C132.007 43.4467 132.197 43.3767 132.343 43.29V40.79H133.023V46H132.343ZM136.77 46.1C136.396 46.1 136.05 46.03 135.73 45.89C135.41 45.7433 135.133 45.5467 134.9 45.3C134.666 45.0467 134.483 44.7567 134.35 44.43C134.223 44.1033 134.16 43.7533 134.16 43.38C134.16 42.8933 134.27 42.4467 134.49 42.04C134.716 41.6333 135.026 41.31 135.42 41.07C135.813 40.8233 136.26 40.7 136.76 40.7C137.273 40.7 137.72 40.8233 138.1 41.07C138.486 41.3167 138.79 41.6433 139.01 42.05C139.23 42.45 139.34 42.89 139.34 43.37C139.34 43.4233 139.34 43.4767 139.34 43.53C139.34 43.5767 139.336 43.6133 139.33 43.64H134.87C134.903 44.0133 135.006 44.3467 135.18 44.64C135.36 44.9267 135.59 45.1567 135.87 45.33C136.156 45.4967 136.466 45.58 136.8 45.58C137.14 45.58 137.46 45.4933 137.76 45.32C138.066 45.1467 138.28 44.92 138.4 44.64L138.99 44.8C138.883 45.0467 138.72 45.27 138.5 45.47C138.28 45.67 138.02 45.8267 137.72 45.94C137.426 46.0467 137.11 46.1 136.77 46.1ZM134.85 43.15H138.7C138.673 42.77 138.57 42.4367 138.39 42.15C138.216 41.8633 137.986 41.64 137.7 41.48C137.42 41.3133 137.11 41.23 136.77 41.23C136.43 41.23 136.12 41.3133 135.84 41.48C135.56 41.64 135.33 41.8667 135.15 42.16C134.976 42.4467 134.876 42.7767 134.85 43.15ZM142.649 46.1C142.269 46.1 141.919 46.03 141.599 45.89C141.285 45.7433 141.009 45.5433 140.769 45.29C140.535 45.0367 140.352 44.7467 140.219 44.42C140.092 44.0933 140.029 43.7467 140.029 43.38C140.029 42.8867 140.139 42.4367 140.359 42.03C140.579 41.6233 140.885 41.3 141.279 41.06C141.672 40.82 142.125 40.7 142.639 40.7C143.125 40.7 143.555 40.8133 143.929 41.04C144.302 41.26 144.579 41.56 144.759 41.94L144.099 42.15C143.952 41.8833 143.745 41.6767 143.479 41.53C143.219 41.3767 142.929 41.3 142.609 41.3C142.262 41.3 141.945 41.39 141.659 41.57C141.372 41.75 141.142 41.9967 140.969 42.31C140.802 42.6233 140.719 42.98 140.719 43.38C140.719 43.7733 140.805 44.13 140.979 44.45C141.152 44.77 141.382 45.0267 141.669 45.22C141.955 45.4067 142.272 45.5 142.619 45.5C142.845 45.5 143.062 45.46 143.269 45.38C143.482 45.3 143.665 45.1933 143.819 45.06C143.979 44.92 144.085 44.77 144.139 44.61L144.809 44.81C144.715 45.0567 144.559 45.28 144.339 45.48C144.125 45.6733 143.872 45.8267 143.579 45.94C143.292 46.0467 142.982 46.1 142.649 46.1ZM145.867 46V40.79H146.547V43.02H147.327L149.077 40.79H149.857L147.867 43.32L150.107 46H149.307L147.327 43.65H146.547V46H145.867ZM151.062 46V40.8H151.742V45.08L154.912 40.79H155.522V46H154.842V41.79L151.722 46H151.062ZM159.26 46.1C158.886 46.1 158.54 46.03 158.22 45.89C157.9 45.7433 157.623 45.5467 157.39 45.3C157.156 45.0467 156.973 44.7567 156.84 44.43C156.713 44.1033 156.65 43.7533 156.65 43.38C156.65 42.8933 156.76 42.4467 156.98 42.04C157.206 41.6333 157.516 41.31 157.91 41.07C158.303 40.8233 158.75 40.7 159.25 40.7C159.763 40.7 160.21 40.8233 160.59 41.07C160.976 41.3167 161.28 41.6433 161.5 42.05C161.72 42.45 161.83 42.89 161.83 43.37C161.83 43.4233 161.83 43.4767 161.83 43.53C161.83 43.5767 161.826 43.6133 161.82 43.64H157.36C157.393 44.0133 157.496 44.3467 157.67 44.64C157.85 44.9267 158.08 45.1567 158.36 45.33C158.646 45.4967 158.956 45.58 159.29 45.58C159.63 45.58 159.95 45.4933 160.25 45.32C160.556 45.1467 160.77 44.92 160.89 44.64L161.48 44.8C161.373 45.0467 161.21 45.27 160.99 45.47C160.77 45.67 160.51 45.8267 160.21 45.94C159.916 46.0467 159.6 46.1 159.26 46.1ZM157.34 43.15H161.19C161.163 42.77 161.06 42.4367 160.88 42.15C160.706 41.8633 160.476 41.64 160.19 41.48C159.91 41.3133 159.6 41.23 159.26 41.23C158.92 41.23 158.61 41.3133 158.33 41.48C158.05 41.64 157.82 41.8667 157.64 42.16C157.466 42.4467 157.366 42.7767 157.34 43.15ZM165.724 48.18C165.611 48.18 165.494 48.16 165.374 48.12C165.261 48.0867 165.144 48.0367 165.024 47.97L165.274 47.49C165.348 47.53 165.414 47.5633 165.474 47.59C165.541 47.6167 165.611 47.63 165.684 47.63C165.858 47.63 166.021 47.5433 166.174 47.37C166.328 47.1967 166.474 46.9433 166.614 46.61L166.874 45.96L164.554 40.79H165.274L167.184 45.3L168.944 40.79H169.624L167.144 46.82C167.011 47.1333 166.871 47.39 166.724 47.59C166.578 47.79 166.421 47.9367 166.254 48.03C166.088 48.13 165.911 48.18 165.724 48.18ZM172.649 46.1C172.269 46.1 171.919 46.03 171.599 45.89C171.285 45.7433 171.009 45.5433 170.769 45.29C170.535 45.0367 170.352 44.7467 170.219 44.42C170.092 44.0933 170.029 43.7467 170.029 43.38C170.029 42.8867 170.139 42.4367 170.359 42.03C170.579 41.6233 170.885 41.3 171.279 41.06C171.672 40.82 172.125 40.7 172.639 40.7C173.125 40.7 173.555 40.8133 173.929 41.04C174.302 41.26 174.579 41.56 174.759 41.94L174.099 42.15C173.952 41.8833 173.745 41.6767 173.479 41.53C173.219 41.3767 172.929 41.3 172.609 41.3C172.262 41.3 171.945 41.39 171.659 41.57C171.372 41.75 171.142 41.9967 170.969 42.31C170.802 42.6233 170.719 42.98 170.719 43.38C170.719 43.7733 170.805 44.13 170.979 44.45C171.152 44.77 171.382 45.0267 171.669 45.22C171.955 45.4067 172.272 45.5 172.619 45.5C172.845 45.5 173.062 45.46 173.269 45.38C173.482 45.3 173.665 45.1933 173.819 45.06C173.979 44.92 174.085 44.77 174.139 44.61L174.809 44.81C174.715 45.0567 174.559 45.28 174.339 45.48C174.125 45.6733 173.872 45.8267 173.579 45.94C173.292 46.0467 172.982 46.1 172.649 46.1ZM175.377 46.03V45.41C175.557 45.41 175.717 45.3633 175.857 45.27C175.997 45.17 176.12 45.0033 176.227 44.77C176.34 44.5367 176.43 44.2167 176.497 43.81C176.564 43.3967 176.607 42.8733 176.627 42.24L176.687 40.79H180.067V46H179.387V41.4H177.287L177.267 42.3C177.24 43.02 177.184 43.6233 177.097 44.11C177.01 44.59 176.887 44.97 176.727 45.25C176.574 45.53 176.384 45.73 176.157 45.85C175.93 45.97 175.67 46.03 175.377 46.03ZM182.14 48.18C182.027 48.18 181.91 48.16 181.79 48.12C181.677 48.0867 181.56 48.0367 181.44 47.97L181.69 47.49C181.764 47.53 181.83 47.5633 181.89 47.59C181.957 47.6167 182.027 47.63 182.1 47.63C182.274 47.63 182.437 47.5433 182.59 47.37C182.744 47.1967 182.89 46.9433 183.03 46.61L183.29 45.96L180.97 40.79H181.69L183.6 45.3L185.36 40.79H186.04L183.56 46.82C183.427 47.1333 183.287 47.39 183.14 47.59C182.994 47.79 182.837 47.9367 182.67 48.03C182.504 48.13 182.327 48.18 182.14 48.18ZM186.98 46V40.79H190.09V41.4H187.66V46H186.98ZM191.033 46V40.8H191.713V45.08L194.883 40.79H195.493V46H194.813V41.79L191.693 46H191.033Z" fill="#A9954E"/>
</svg>
