<svg width="247" height="88" viewBox="0 0 247 88" fill="none" xmlns="http://www.w3.org/2000/svg">
<path d="M20.021 21.447C23.5579 26.6284 27.0133 31.6854 30.4666 36.7446C32.6144 39.891 34.7731 43.03 36.903 46.1955C41.1171 52.4573 45.3197 58.7319 49.5181 65.0083C51.6259 68.1579 53.7024 71.3385 55.8172 74.4796C57.918 77.6033 60.7361 79.4327 63.7072 80.9285C64.9712 81.5648 66.3071 81.9876 67.7565 82.5649C67.7391 82.0549 67.7472 81.7746 67.7169 81.4995C67.2249 76.8713 65.9639 72.5798 63.8677 68.6997C63.2724 67.5967 62.4439 66.6762 61.6829 65.7205C59.0751 62.4451 56.4392 59.2064 53.8336 55.9291C49.0314 49.8811 44.238 43.8248 39.4522 37.7553C37.0939 34.7632 34.757 31.7431 32.4193 28.7277C29.7132 25.2367 27.0179 21.7328 24.3162 18.2376C24.1342 18.0027 23.9317 17.7936 23.7897 17.6292C24.682 15.1083 26.5954 13.4409 27.7074 10.8234C26.9737 10.6397 26.5066 10.436 26.0446 10.4465C25.8456 10.4512 25.5185 10.8649 25.479 11.1423C25.1794 13.303 23.782 14.0479 22.4176 14.8182C22.2457 14.9158 21.9102 14.7571 21.7224 14.5946C18.225 11.5813 15.5229 7.63279 13.0821 3.37674C12.9066 3.06938 12.6808 2.7337 12.415 2.592C11.945 2.34135 11.5399 2.15095 11.6529 1.3497C11.6751 1.18938 11.4348 0.909963 11.2664 0.785171C10.4343 0.158022 9.40543 0.280832 8.62987 1.06021C7.81633 1.87464 7.49956 3.12326 7.81663 4.26137C7.9495 4.7353 8.12115 5.12775 8.62229 5.10446C8.76795 5.09788 9.03754 5.29416 9.05044 5.42627C9.17074 6.72377 10.0549 7.29625 10.7102 8.0275C13.524 11.1672 16.0121 14.6228 17.9179 18.6929C18.1382 19.1648 18.2128 19.5576 17.9287 19.9935C17.4475 20.7333 17.0354 21.5806 16.4543 22.1683C16.0053 22.6221 15.3355 22.7338 14.775 23.0334C14.5362 23.161 14.141 23.3693 14.1384 23.5502C14.129 24.1563 14.2143 24.7861 14.3862 25.3526C14.4166 25.451 15.1017 25.4155 15.3671 25.2117C16.9352 23.9965 18.4691 22.714 20.021 21.447Z" fill="#7395AE"/>
<path d="M82.1386 21.4483C78.6017 26.6298 75.1463 31.6865 71.693 36.7458C69.5451 39.8923 67.3864 43.0312 65.2566 46.1967C61.0425 52.4586 56.8399 58.7331 52.6415 65.0095C50.5337 68.1591 48.4571 71.3398 46.3424 74.4808C44.2415 77.6045 41.4235 79.434 38.4523 80.9298C37.1883 81.566 35.8524 81.9889 34.403 82.5662C34.4204 82.0562 34.4124 81.7758 34.4426 81.5008C34.9346 76.8725 36.1957 72.581 38.2919 68.7009C38.8872 67.598 39.7157 66.6774 40.4767 65.7218C43.0845 62.4463 45.7203 59.2076 48.326 55.9303C53.1282 49.8823 57.9215 43.8261 62.7074 37.7565C65.0657 34.7645 67.4025 31.7443 69.7402 28.7289C72.4464 25.2379 75.1416 21.7341 77.8434 18.239C78.0253 18.004 78.2278 17.7948 78.3699 17.6305C77.4775 15.1097 75.5642 13.4422 74.4521 10.8245C75.1858 10.6408 75.653 10.4374 76.115 10.4477C76.3142 10.4525 76.6411 10.8663 76.6805 11.1435C76.9802 13.3042 78.3776 14.0492 79.742 14.8195C79.9138 14.9172 80.2493 14.7584 80.4374 14.5959C83.9346 11.5826 86.6367 7.63414 89.0774 3.37799C89.253 3.0706 89.4788 2.73498 89.7445 2.59318C90.2145 2.34272 90.6197 2.15233 90.5066 1.35097C90.4844 1.19051 90.7248 0.91124 90.8932 0.786348C91.7253 0.159357 92.7541 0.282094 93.5297 1.06151C94.3433 1.87599 94.66 3.12455 94.3429 4.26251C94.2101 4.73656 94.0384 5.12885 93.5373 5.10585C93.3916 5.09924 93.122 5.29539 93.1091 5.42747C92.9888 6.72488 92.1047 7.29745 91.4494 8.02879C88.6355 11.1685 86.1474 14.624 84.2417 18.6942C84.0214 19.1662 83.9467 19.5589 84.2308 19.9947C84.7121 20.7345 85.1241 21.5819 85.7053 22.1695C86.1543 22.6233 86.8241 22.7351 87.3846 23.0345C87.6233 23.1623 88.0185 23.3706 88.0212 23.5514C88.0306 24.1576 87.9453 24.7874 87.7734 25.3538C87.7429 25.4522 87.0578 25.4168 86.7925 25.213C85.2246 24 83.6904 22.7151 82.1386 21.4483Z" fill="#557A95"/>
<path d="M80.101 70.2697C79.9653 70.8066 79.6629 71.1781 79.3052 71.4939C78.7453 71.9866 78.1147 72.3001 77.4663 72.5647C77.3307 72.6207 77.1932 72.6716 77.0518 72.7251C77.04 72.8147 77.0301 72.8975 77.0163 72.98C76.9495 73.3976 76.6961 73.7134 76.3583 73.7911C76.2638 73.813 76.1675 73.8226 76.0713 73.8226C73.1496 73.8252 70.2261 73.8252 67.3045 73.8226C67.1827 73.8226 67.053 73.8156 66.9371 73.7692C66.6092 73.6406 66.4046 73.3638 66.3478 72.9362C66.3399 72.8708 66.3321 72.8028 66.3222 72.7322C66.0962 72.6423 65.8742 72.5576 65.6543 72.4603C65.1669 72.2489 64.6933 71.9988 64.2574 71.6566C64.0058 71.4597 63.77 71.2413 63.5795 70.9571C63.5185 70.8649 63.4595 70.7702 63.4104 70.668C63.2669 70.3667 63.2218 70.078 63.3298 69.7136C63.6698 68.5577 63.9685 67.3822 64.2829 66.2142C66.33 58.6128 68.3774 51.014 70.4226 43.4126C70.5562 42.9122 70.6919 42.4143 70.8234 41.9142C70.8393 41.8533 70.851 41.7879 70.8706 41.6954C70.6446 41.7682 70.4422 41.8388 70.2379 41.902C68.9472 42.2906 67.6406 42.4436 66.3123 42.356C64.1707 42.2178 62.161 41.4892 60.261 40.2895C59.3434 39.7089 58.4495 39.075 57.5536 38.4509C56.7205 37.8706 55.8856 37.3047 54.9797 36.909C54.3922 36.6516 53.795 36.4669 53.1643 36.5275C52.9522 36.5472 52.7438 36.5955 52.5395 36.7073C52.5984 37.4236 52.3863 37.9872 51.9206 38.4048C51.9167 38.5969 51.9482 38.7644 52.0364 38.9172C52.0876 39.0048 52.1348 39.1066 52.1604 39.2088C52.182 39.3009 52.1917 39.4127 52.1661 39.5001C52.1366 39.5996 52.1447 39.6773 52.176 39.7649C52.235 39.9277 52.284 40.0952 52.349 40.2554C52.396 40.372 52.3902 40.4738 52.3469 40.5905C52.1721 41.0787 52.009 41.5739 51.8321 42.0621C51.7849 42.1933 51.7891 42.2954 51.852 42.4169C51.9717 42.6547 52.0797 42.9002 52.2016 43.1622C52.0229 43.5437 51.8421 43.9275 51.6534 44.328C51.6712 44.3451 51.7124 44.3838 51.7536 44.4205C52.0385 44.6776 52.1878 45.025 52.2016 45.4597C52.2055 45.5448 52.2034 45.6298 52.2034 45.7149C52.2034 53.7339 52.2034 61.7529 52.2034 69.7696C52.2034 69.9224 52.2055 70.078 52.1859 70.2259C52.1309 70.6342 51.948 70.9426 51.6513 71.1585C51.8342 71.5496 52.015 71.9357 52.1995 72.3339C52.0779 72.5988 51.9579 72.8611 51.8225 73.155C52.1781 73.2059 52.5178 73.1502 52.8773 73.1914C52.846 73.291 52.8205 73.3783 52.791 73.4585C52.6318 73.8906 52.5632 74.345 52.5512 74.8183C52.5473 74.9688 52.5807 75.0735 52.679 75.1657C52.8479 75.3258 53.0031 75.5082 53.174 75.6661C53.3037 75.785 53.3746 75.9403 53.4216 76.1201C53.5416 76.5742 53.5434 77.0404 53.5061 77.5067C53.4255 78.476 53.1899 79.3985 52.9718 80.3288C52.8105 81.0135 52.6652 81.7008 52.516 82.3907C52.4943 82.4877 52.4964 82.5899 52.4826 82.7258C53.5807 82.7258 54.6614 82.7258 55.7677 82.7258C55.7677 83.3184 55.7677 83.8746 55.7677 84.4598C56.1997 84.4598 56.6086 84.4598 57.0487 84.4598C57.0487 84.9067 57.0487 85.3243 57.0487 85.7638C57.371 85.7638 57.6655 85.7638 57.9877 85.7638C57.9877 86.1428 57.9898 86.5046 57.9898 86.8665C57.9898 87.2306 57.9859 87.5973 57.9838 87.9618C53.4315 87.9618 48.8792 87.9618 44.3269 87.9618C44.3209 87.8863 44.3091 87.8113 44.3091 87.7359C44.3073 87.1674 44.3091 86.5968 44.3091 86.0287C44.3091 85.9533 44.3091 85.8779 44.3091 85.7712C44.6235 85.7712 44.9223 85.7712 45.2385 85.7712C45.2385 85.3291 45.2385 84.9164 45.2385 84.4694C45.6726 84.4694 46.0872 84.4694 46.5255 84.4694C46.5255 83.8794 46.5255 83.3233 46.5255 82.7329C47.6315 82.7329 48.7122 82.7329 49.8242 82.7329C49.7947 82.5219 49.783 82.3443 49.7457 82.1768C49.5591 81.3512 49.3684 80.5279 49.1758 79.7046C49.0188 79.027 48.8674 78.3471 48.8025 77.6453C48.7573 77.1548 48.7435 76.6641 48.8575 76.1785C48.9087 75.96 48.9932 75.7776 49.1464 75.6394C49.3172 75.4837 49.4725 75.3017 49.6395 75.139C49.7102 75.0687 49.7357 74.9907 49.7378 74.8792C49.7436 74.3959 49.669 73.9345 49.5137 73.4924C49.4803 73.4002 49.4508 73.3077 49.4117 73.1866C49.7673 73.1866 50.1013 73.1866 50.4686 73.1866C50.3606 72.8682 50.2075 72.6182 50.0953 72.3317C50.2761 71.9453 50.4569 71.5571 50.6395 71.1659C50.5887 71.1198 50.5354 71.076 50.4882 71.0273C50.2487 70.7821 50.113 70.4689 50.0974 70.0829C50.0934 69.9736 50.0934 69.8618 50.0934 69.7526C50.0934 61.7503 50.0934 53.7484 50.0934 45.7439C50.0934 45.6347 50.0934 45.5229 50.0974 45.4136C50.113 45.0153 50.2544 44.6996 50.5041 44.4543C50.5511 44.4083 50.6043 44.3644 50.6395 44.3329C50.4569 43.942 50.2761 43.5582 50.0914 43.1648C50.2093 42.9122 50.3194 42.6595 50.4412 42.4143C50.502 42.2954 50.508 42.1933 50.4608 42.0621C50.286 41.5813 50.1268 41.0932 49.952 40.615C49.9027 40.4787 49.8949 40.3624 49.952 40.2312C49.999 40.1194 50.0306 39.9957 50.0757 39.8813C50.1287 39.7404 50.1699 39.6141 50.1112 39.4492C50.0561 39.2961 50.1386 39.1504 50.2033 39.0216C50.2977 38.8395 50.3802 38.6597 50.3724 38.4074C49.9244 38.0065 49.6966 37.4481 49.7517 36.7147C49.5669 36.5932 49.3585 36.5542 49.1484 36.5323C48.5549 36.4692 47.9871 36.6271 47.4293 36.8626C46.6787 37.181 45.9675 37.6034 45.2779 38.0819C44.4153 38.6816 43.5606 39.2987 42.6902 39.879C41.419 40.7313 40.0928 41.4235 38.6821 41.8559C37.4209 42.2419 36.1417 42.4288 34.843 42.3756C33.8449 42.3341 32.8586 42.1717 31.892 41.8511C31.835 41.8314 31.776 41.8169 31.6837 41.7902C31.7132 41.9094 31.7328 41.9967 31.7564 42.0818C32.7073 45.6517 33.6563 49.224 34.6132 52.794C36.1239 58.4259 37.6348 64.0552 39.1617 69.6797C39.2775 70.1048 39.2125 70.435 39.0299 70.7724C38.8629 71.0808 38.6388 71.3189 38.3954 71.5277C37.8412 72.0014 37.2244 72.3098 36.5896 72.5672C36.4521 72.623 36.3146 72.6739 36.1732 72.73C36.1672 72.7638 36.1594 72.7954 36.1573 72.8295C36.1143 73.3857 35.8333 73.7476 35.3835 73.8178C35.3086 73.8301 35.2321 73.8301 35.1575 73.8301C32.2633 73.8301 29.3673 73.8301 26.4732 73.8301C26.3769 73.8301 26.2806 73.8252 26.1863 73.8081C25.7816 73.7305 25.5105 73.3735 25.4673 72.8682C25.4633 72.827 25.4594 72.7857 25.4535 72.7396C25.1902 72.6304 24.9269 72.5308 24.6696 72.4142C24.196 72.2028 23.7343 71.9624 23.3217 71.6031C23.1036 71.4137 22.9052 71.1878 22.7127 70.9619C22.6243 70.8597 22.5614 70.7189 22.5024 70.5878C22.3787 70.311 22.3531 70.0368 22.4415 69.7136C24.5831 61.7941 26.7168 53.8699 28.8525 45.9479C29.2612 44.435 29.6698 42.9196 30.0765 41.4064C30.104 41.302 30.1296 41.1976 30.161 41.0738C30.0883 41.0229 30.0196 40.9717 29.9488 40.9234C29.4144 40.5567 28.935 40.1097 28.5499 39.5171C28.3201 39.1627 28.1314 38.7812 28.0568 38.3272C28.045 38.2517 28.0352 38.1767 28.0293 38.1013C27.9605 37.2174 28.4045 36.9332 28.8427 36.8604C29.0077 36.8336 29.1865 36.8652 29.3496 36.9209C29.6168 37.0134 29.7229 37.2393 29.6816 37.5815C29.6443 37.8754 29.5854 38.1644 29.5441 38.4557C29.5245 38.5894 29.5186 38.7254 29.5186 38.8614C29.5166 39.5487 29.7386 39.9882 30.2612 40.3185C30.4322 40.0514 30.6365 39.8255 30.9508 39.9277C31.2436 40.0247 31.3733 40.3089 31.4597 40.6488C31.6798 40.6852 31.8959 40.6659 32.112 40.6366C32.9176 40.5273 33.6779 40.2115 34.4363 39.8764C35.2556 39.5146 36.0102 38.99 36.7704 38.4802C37.6998 37.8535 38.6271 37.2271 39.5643 36.62C40.6528 35.9156 41.7981 35.4007 43.0145 35.1335C43.9851 34.9199 44.9653 34.8422 45.9497 34.8787C46.8183 34.9102 47.6767 35.0291 48.5176 35.3085C49.0167 35.4735 49.4962 35.6971 49.9578 35.9787C50.0874 35.8283 50.2192 35.6945 50.3332 35.5392C50.4548 35.3739 50.4725 35.158 50.4686 34.9418C50.4686 34.9125 50.4452 34.8809 50.4274 34.8593C50.4039 34.83 50.3744 34.801 50.345 34.7839C50.0384 34.6186 50.0188 34.3006 50.0444 33.9532C50.0895 33.2904 50.2033 32.6421 50.3507 32.0057C50.5866 30.9955 50.8381 29.9898 51.0836 28.9822C51.0992 28.919 51.1248 28.8607 51.1603 28.7515C51.2918 29.2516 51.4136 29.7011 51.5256 30.1551C51.7849 31.1849 52.0346 32.217 52.1859 33.2807C52.2311 33.6062 52.2389 33.9387 52.2585 34.2667C52.2684 34.4511 52.2076 34.597 52.0698 34.6844C52.0523 34.6966 52.0346 34.7111 52.019 34.7282C51.954 34.8081 51.8342 34.8277 51.8361 34.9782C51.8361 35.1774 51.8559 35.3765 51.9657 35.527C52.0797 35.6826 52.2115 35.8186 52.3451 35.9739C52.4492 35.913 52.5611 35.8476 52.673 35.787C53.4336 35.3739 54.2312 35.1313 55.0525 35.0001C55.9897 34.8493 56.9308 34.8374 57.8719 34.9125C59.591 35.051 61.2118 35.6195 62.7326 36.6126C64.0077 37.4455 65.2652 38.3223 66.5424 39.1479C67.5993 39.8329 68.7173 40.3234 69.8961 40.5882C70.2695 40.6707 70.6467 40.6901 71.0357 40.6462C71.1221 40.3475 71.2301 40.0636 71.4973 39.9444C71.7765 39.8207 71.9904 39.9663 72.179 40.2215C72.4895 39.9957 72.686 39.6895 72.7567 39.2645C72.8256 38.854 72.7726 38.4535 72.7037 38.0526C72.6742 37.8876 72.6429 37.7223 72.6213 37.5548C72.5858 37.2757 72.6742 37.074 72.8746 36.9503C73.2263 36.7363 73.7706 36.8407 74.0516 37.1762C74.2029 37.3582 74.2697 37.5841 74.2794 37.839C74.2953 38.2057 74.2225 38.5456 74.0889 38.8711C73.8355 39.493 73.4544 39.976 73.0103 40.3914C72.8355 40.5541 72.6487 40.6997 72.4621 40.8431C72.3875 40.9014 72.3481 40.9598 72.3285 41.0738C72.2891 41.2997 72.3186 41.5011 72.3776 41.7173C74.7941 50.5622 77.2049 59.4093 79.6196 68.2542C79.7592 68.7688 79.9006 69.2837 80.0441 69.7961C80.0559 69.8399 80.0814 69.8763 80.101 69.9176C80.101 70.0342 80.101 70.1531 80.101 70.2697ZM37.908 69.9201C37.8903 69.8325 37.8806 69.7841 37.8689 69.7381C35.5267 61.0147 33.1867 52.2913 30.8448 43.5679C30.8428 43.5608 30.8349 43.5582 30.829 43.5534C30.829 43.5534 30.8173 43.5534 30.8035 43.5508C28.436 52.33 26.0685 61.1142 23.695 69.9176C28.4419 69.9201 33.1612 69.9201 37.908 69.9201ZM64.5971 69.8956C64.8251 69.9565 78.6039 69.9443 78.7631 69.8837C76.3935 61.2016 74.026 52.522 71.6564 43.8399C71.6429 43.8399 71.627 43.8424 71.6134 43.8424C69.2733 52.5268 66.9353 61.2112 64.5971 69.8956Z" fill="#DBBD8A"/>
<path d="M10.9784 15.8983C11.501 15.9373 12.0217 15.9759 12.5443 16.0149C13.7743 16.1071 15.0041 16.197 16.2341 16.2917C18.804 16.4909 20.7275 17.9432 21.924 20.7942C22.0832 21.1732 22.262 21.547 22.3818 21.9452C22.7296 23.1088 23.4388 23.6988 24.3819 23.9392C24.7258 24.0265 25.0715 24.1019 25.4173 24.1822C25.433 24.1432 25.4488 24.1045 25.4645 24.0655C25.3957 23.9489 25.325 23.8348 25.2602 23.7133C24.881 23.0018 24.5351 22.2588 24.1167 21.5837C23.8377 21.1342 23.4899 20.7188 23.1107 20.4034C22.1166 19.5775 21.2521 18.6256 20.7059 17.2826C19.916 15.3447 19.8512 13.2998 20.1754 11.2208C20.3444 10.1378 20.5978 9.07669 20.8257 7.9447C20.975 8.04943 21.0536 8.08326 21.1086 8.14642C22.2659 9.50655 23.3583 10.9295 24.1521 12.666C24.9753 14.4705 25.2169 16.389 24.9242 18.4191C24.8967 18.6037 24.8672 18.7884 24.8338 18.973C24.6079 20.2139 24.7926 21.3043 25.4272 22.3509C26.5903 24.2695 28.1149 25.1269 30.0247 25.0248C30.2133 25.0151 30.3999 24.952 30.6986 24.8911C30.506 24.6678 30.394 24.5124 30.2624 24.3861C28.1582 22.3583 27.164 19.6797 27.1935 16.3987C27.1954 16.1947 27.1777 15.9711 27.2347 15.7916C27.2681 15.6869 27.4744 15.5509 27.5353 15.5899C29.1169 16.6124 30.7143 17.6103 31.9049 19.3397C32.6319 20.396 33.0799 21.6053 33.3058 22.9558C33.3804 23.4075 33.461 23.859 33.5612 24.3036C33.6693 24.7818 33.9247 25.1463 34.3196 25.2362C35.4474 25.4959 36.5831 25.7095 37.7167 25.9354C37.7637 25.9451 37.8169 25.9038 37.9229 25.8674C37.6557 25.0686 37.251 24.4686 36.5888 24.3011C36.1782 24.1967 35.7166 24.2524 35.302 24.3691C34.9228 24.476 34.742 24.2624 34.5947 23.944C34.4395 23.6067 34.3471 23.172 34.6497 22.929C34.7951 22.8124 35.1056 22.9435 35.3198 23.0357C35.8304 23.2567 36.3277 23.5216 36.8307 23.7668C36.8599 23.7182 36.8894 23.6698 36.921 23.6212C36.8698 23.4778 36.8304 23.3225 36.7636 23.1913C36.4709 22.6158 36.1547 22.0596 35.8797 21.4719C35.7675 21.2315 35.6929 20.9328 35.6793 20.6557C35.6595 20.2407 35.9739 19.9297 36.3099 19.9587C36.8758 20.0074 37.3395 20.9911 37.1782 21.6636C37.078 22.0838 37.0172 22.5816 37.1057 22.9922C37.3295 24.0436 37.8641 24.8646 38.6717 25.4546C38.6323 25.2217 38.5989 24.9858 38.5516 24.7551C38.4535 24.2743 38.308 23.801 38.2649 23.315C38.2393 23.0308 38.3413 22.7006 38.4632 22.4482C38.5026 22.3654 38.9112 22.4067 38.9349 22.4847C39.0192 22.7808 39.0468 23.1159 39.033 23.4339C39.0074 23.9563 38.8642 24.4783 38.8955 24.991C38.9563 25.9963 39.373 26.72 40.2021 27.0088C40.593 27.1451 40.9781 27.31 41.4417 27.417C39.7304 23.4559 39.8935 19.5849 41.5813 15.6992C41.6737 15.7794 41.7287 15.8061 41.7582 15.857C42.7267 17.4817 43.7346 19.0748 44.3988 20.9447C45.173 23.1281 45.1964 25.3187 44.4675 27.5285C44.2848 28.0824 44.1278 28.6505 43.9804 29.2212C43.943 29.3646 43.943 29.6027 44.0137 29.6926C44.6798 30.5278 45.3655 31.3415 46.0924 32.1354C46.1318 31.0817 46.5344 30.1805 46.4736 29.0781C46.3027 26.0011 47.3458 23.5435 49.3971 21.7513C49.7331 21.4574 49.9296 21.5689 50.136 21.9552C51.0416 23.6527 50.8668 26.3289 49.6976 27.757C49.1398 28.4395 48.5071 29.032 47.9078 29.6633C47.7507 29.8286 47.5738 29.9717 47.4264 30.1515C46.4637 31.334 46.4285 32.2424 47.2378 33.5806C47.6091 34.1925 47.9373 34.8457 48.2733 35.4895C48.338 35.6132 48.3871 35.7808 48.3853 35.9242C48.3813 36.0721 48.3067 36.2203 48.2613 36.366C48.1611 36.2957 48.0336 36.2519 47.9647 36.1501C46.9057 34.5908 45.8547 33.0267 44.8053 31.4604C44.3083 30.7199 43.6422 30.3116 42.9352 29.9961C42.5167 29.8089 42.1235 29.9668 41.7365 30.2001C41.1905 30.5304 40.6462 30.8774 40.0764 31.1326C38.758 31.7204 37.4279 31.4823 36.1035 31.1278C36.0683 31.1181 36.0407 31.0669 35.9838 31.0112C36.025 30.9116 36.0506 30.7975 36.1075 30.7147C37.2628 29.061 39.2571 27.9877 41.1511 29.1848C41.4498 29.3742 41.8112 29.4132 42.1433 29.5199C42.1668 29.4519 42.1884 29.3865 42.2119 29.3185C42.0275 29.1654 41.8485 29.0005 41.6559 28.8642C40.8523 28.2935 40.0586 27.6938 39.2316 27.1815C38.7051 26.8534 38.1371 26.6057 37.5654 26.4165C36.8855 26.1906 36.1842 26.0569 35.4886 25.9038C34.184 25.6174 33.3078 26.1565 32.681 27.6065C31.848 29.537 29.5944 30.8874 27.8458 30.5085C27.4351 30.4186 27.4057 30.3335 27.5746 29.865C28.4136 27.5504 30.0168 26.5815 31.8971 26.0836C32.349 25.9647 32.793 25.802 33.241 25.6586C33.237 25.6029 33.2331 25.5468 33.2311 25.4911C33.1388 25.4691 33.0445 25.4305 32.9522 25.4305C31.4432 25.4086 29.9343 25.4012 28.4254 25.3696C27.3644 25.3477 26.6021 26.0182 26.0107 26.9968C25.8378 27.2833 25.8221 27.7641 25.8221 28.1527C25.824 28.7649 25.5058 29.1339 25.0715 28.9325C24.6472 28.7382 24.5921 28.2474 24.9085 27.8517C25.2877 27.3758 25.6295 26.8512 26.0343 26.2802C25.0401 26.0933 23.9732 27.0964 23.8888 28.1407C23.8593 28.5074 23.706 28.8062 23.4054 28.7842C23.2089 28.7697 22.9634 28.5922 22.8474 28.3931C22.6746 28.0895 22.7708 27.757 23.038 27.5627C23.6824 27.0964 24.3367 26.6472 24.9812 26.1832C25.2385 25.9986 25.4861 25.7875 25.8299 25.5152C24.5568 24.9397 23.4565 24.148 22.1519 25.0902C20.9338 25.9696 19.6017 25.899 18.2814 25.4327C16.739 24.8862 15.4757 23.8006 14.5248 22.2175C13.3263 20.2258 12.1789 18.191 11.0079 16.1751C10.9764 16.1193 10.9371 16.0684 10.9018 16.0172C10.9214 15.9808 10.9509 15.9395 10.9784 15.8983Z" fill="#DBBD8A"/>
<path d="M91.495 15.8983C90.9724 15.9373 90.4517 15.9759 89.9291 16.0149C88.6992 16.1071 87.4692 16.197 86.2393 16.2917C83.6694 16.4909 81.746 17.9432 80.5494 20.7942C80.3903 21.1732 80.2113 21.547 80.0915 21.9452C79.7438 23.1088 79.0346 23.6988 78.0914 23.9392C77.7475 24.0265 77.4018 24.1019 77.0561 24.1822C77.0402 24.1432 77.0246 24.1045 77.0089 24.0655C77.0775 23.9489 77.1482 23.8348 77.2132 23.7133C77.5923 23.0018 77.9383 22.2588 78.3568 21.5837C78.6357 21.1342 78.9835 20.7188 79.3626 20.4034C80.3569 19.5775 81.2213 18.6256 81.7676 17.2826C82.5574 15.3447 82.6221 13.2998 82.298 11.2208C82.129 10.1378 81.8756 9.07669 81.6476 7.9447C81.4984 8.04943 81.4198 8.08326 81.3648 8.14642C80.2074 9.50655 79.115 10.9295 78.3213 12.666C77.4981 14.4705 77.2565 16.389 77.5493 18.4191C77.5767 18.6037 77.6061 18.7884 77.6395 18.973C77.8655 20.2139 77.6808 21.3043 77.0462 22.3509C75.8831 24.2695 74.3584 25.1269 72.4488 25.0248C72.2601 25.0151 72.0733 24.952 71.7748 24.8911C71.9674 24.6678 72.0793 24.5124 72.2108 24.3861C74.3153 22.3583 75.3094 19.6797 75.2799 16.3987C75.2778 16.1947 75.2955 15.9711 75.2387 15.7916C75.2053 15.6869 74.9989 15.5509 74.9381 15.5899C73.3565 16.6124 71.7592 17.6103 70.5684 19.3397C69.8415 20.396 69.3935 21.6053 69.1676 22.9558C69.093 23.4075 69.0124 23.859 68.9122 24.3036C68.8041 24.7818 68.5466 25.1463 68.1537 25.2362C67.0261 25.4959 65.8903 25.7095 64.7567 25.9354C64.7095 25.9451 64.6565 25.9038 64.5503 25.8674C64.8177 25.0686 65.2224 24.4686 65.8846 24.3011C66.295 24.1967 66.7568 24.2524 67.1714 24.3691C67.5505 24.476 67.7313 24.2624 67.8787 23.944C68.0339 23.6067 68.1263 23.172 67.8237 22.929C67.6783 22.8124 67.3678 22.9435 67.1536 23.0357C66.6428 23.2567 66.1458 23.5216 65.6427 23.7668C65.6132 23.7182 65.5838 23.6698 65.5524 23.6212C65.6036 23.4778 65.6427 23.3225 65.7095 23.1913C66.0023 22.6158 66.3187 22.0596 66.5937 21.4719C66.7057 21.2315 66.7803 20.9328 66.7941 20.6557C66.8137 20.2407 66.4995 19.9297 66.1635 19.9587C65.5976 20.0074 65.134 20.9911 65.2949 21.6636C65.3951 22.0838 65.4562 22.5816 65.3677 22.9922C65.1439 24.0436 64.6093 24.8646 63.8018 25.4546C63.8412 25.2217 63.8746 24.9858 63.9218 24.7551C64.0199 24.2743 64.1652 23.801 64.2085 23.315C64.2341 23.0308 64.1318 22.7006 64.01 22.4482C63.9708 22.3654 63.5622 22.4067 63.5385 22.4847C63.454 22.7808 63.4266 23.1159 63.4404 23.4339C63.466 23.9563 63.6092 24.4783 63.5779 24.991C63.5168 25.9963 63.1004 26.72 62.2713 27.0088C61.8804 27.1451 61.4953 27.31 61.0314 27.417C62.7427 23.4559 62.5797 19.5849 60.8921 15.6992C60.7998 15.7794 60.7447 15.8061 60.7152 15.857C59.7465 17.4817 58.7386 19.0748 58.0746 20.9447C57.3005 23.1281 57.277 25.3187 58.0057 27.5285C58.1886 28.0824 58.3457 28.6505 58.4931 29.2212C58.5304 29.3646 58.5304 29.6027 58.4597 29.6926C57.7936 30.5278 57.1079 31.3415 56.381 32.1354C56.3416 31.0817 55.9388 30.1805 55.9998 29.0781C56.1707 26.0011 55.1274 23.5435 53.0764 21.7513C52.7403 21.4574 52.5438 21.5689 52.3375 21.9552C51.4319 23.6527 51.6067 26.3289 52.7755 27.757C53.3336 28.4395 53.9663 29.032 54.5656 29.6633C54.7227 29.8286 54.8996 29.9717 55.047 30.1515C56.0097 31.334 56.045 32.2424 55.2356 33.5806C54.8641 34.1925 54.5361 34.8457 54.2001 35.4895C54.1354 35.6132 54.0861 35.7808 54.0882 35.9242C54.0921 36.0721 54.1667 36.2203 54.2118 36.366C54.312 36.2957 54.4399 36.2519 54.5085 36.1501C55.5675 34.5908 56.6187 33.0267 57.6678 31.4604C58.1648 30.7199 58.8309 30.3116 59.5383 29.9961C59.9568 29.8089 60.3497 29.9668 60.7369 30.2001C61.283 30.5304 61.8272 30.8774 62.397 31.1326C63.7154 31.7204 65.0455 31.4823 66.3699 31.1278C66.4051 31.1181 66.4328 31.0669 66.4896 31.0112C66.4484 30.9116 66.4228 30.7975 66.3657 30.7147C65.2107 29.061 63.2163 27.9877 61.3224 29.1848C61.0236 29.3742 60.6623 29.4132 60.3301 29.5199C60.3066 29.4519 60.285 29.3865 60.2612 29.3185C60.446 29.1654 60.6249 29.0005 60.8175 28.8642C61.6211 28.2935 62.4148 27.6938 63.2418 27.1815C63.7684 26.8534 64.3364 26.6057 64.908 26.4165C65.5877 26.1906 66.2893 26.0569 66.9848 25.9038C68.2894 25.6174 69.1655 26.1565 69.7925 27.6065C70.6253 29.537 72.879 30.8874 74.6276 30.5085C75.0383 30.4186 75.0678 30.3335 74.8987 29.865C74.0599 27.5504 72.4566 26.5815 70.5762 26.0836C70.1243 25.9647 69.6803 25.802 69.2323 25.6586C69.2362 25.6029 69.2404 25.5468 69.2422 25.4911C69.3346 25.4691 69.4288 25.4305 69.5211 25.4305C71.0302 25.4086 72.539 25.4012 74.0479 25.3696C75.109 25.3477 75.8714 26.0182 76.4626 26.9968C76.6356 27.2833 76.6512 27.7641 76.6512 28.1527C76.6494 28.7649 76.9677 29.1339 77.4018 28.9325C77.8261 28.7382 77.8811 28.2474 77.5649 27.8517C77.1858 27.3758 76.8438 26.8512 76.4391 26.2802C77.4332 26.0933 78.5 27.0964 78.5845 28.1407C78.614 28.5074 78.7674 28.8062 79.068 28.7842C79.2645 28.7697 79.51 28.5922 79.6258 28.3931C79.7988 28.0895 79.7025 27.757 79.4354 27.5627C78.7909 27.0964 78.1366 26.6472 77.4903 26.1832C77.2328 25.9986 76.9852 25.7875 76.6416 25.5152C77.9145 24.9397 79.0148 24.148 80.3196 25.0902C81.5375 25.9696 82.8697 25.899 84.1899 25.4327C85.7324 24.8862 86.9957 23.8006 87.9467 22.2175C89.145 20.2258 90.2925 18.191 91.4635 16.1751C91.495 16.1193 91.5342 16.0684 91.5697 16.0172C91.5519 15.9808 91.5224 15.9395 91.495 15.8983Z" fill="#DBBD8A"/>
<path d="M89.708 39.48H90.416L93.956 48H93.068L91.964 45.336H88.136L87.044 48H86.144L89.708 39.48ZM91.772 44.676L90.056 40.464L88.316 44.676H91.772ZM94.9974 48V41.748H95.8134V44.436H99.3894V41.748H100.205V48H99.3894V45.168H95.8134V48H94.9974ZM101.993 48V41.748H102.809V44.436H106.385V41.748H107.201V48H106.385V45.168H102.809V48H101.993ZM108.498 46.2C108.498 45.808 108.61 45.472 108.834 45.192C109.058 44.904 109.366 44.684 109.758 44.532C110.158 44.372 110.618 44.292 111.138 44.292C111.442 44.292 111.758 44.316 112.086 44.364C112.414 44.412 112.706 44.484 112.962 44.58V44.052C112.962 43.524 112.806 43.104 112.494 42.792C112.182 42.48 111.75 42.324 111.198 42.324C110.862 42.324 110.53 42.388 110.202 42.516C109.882 42.636 109.546 42.816 109.194 43.056L108.882 42.48C109.29 42.2 109.69 41.992 110.082 41.856C110.474 41.712 110.874 41.64 111.282 41.64C112.05 41.64 112.658 41.86 113.106 42.3C113.554 42.74 113.778 43.348 113.778 44.124V47.016C113.778 47.128 113.802 47.212 113.85 47.268C113.898 47.316 113.974 47.344 114.078 47.352V48C113.99 48.008 113.914 48.016 113.85 48.024C113.786 48.032 113.738 48.032 113.706 48.024C113.506 48.016 113.354 47.952 113.25 47.832C113.146 47.712 113.09 47.584 113.082 47.448L113.07 46.992C112.79 47.352 112.426 47.632 111.978 47.832C111.53 48.024 111.074 48.12 110.61 48.12C110.21 48.12 109.846 48.036 109.518 47.868C109.198 47.692 108.946 47.46 108.762 47.172C108.586 46.876 108.498 46.552 108.498 46.2ZM112.686 46.68C112.774 46.568 112.842 46.46 112.89 46.356C112.938 46.252 112.962 46.16 112.962 46.08V45.168C112.69 45.064 112.406 44.984 112.11 44.928C111.822 44.872 111.53 44.844 111.234 44.844C110.65 44.844 110.178 44.96 109.818 45.192C109.458 45.424 109.278 45.74 109.278 46.14C109.278 46.372 109.338 46.592 109.458 46.8C109.578 47 109.754 47.168 109.986 47.304C110.218 47.432 110.49 47.496 110.802 47.496C111.194 47.496 111.558 47.42 111.894 47.268C112.238 47.116 112.502 46.92 112.686 46.68ZM124.527 48V40.224H121.047L120.999 42.024C120.959 43.2 120.875 44.176 120.747 44.952C120.619 45.728 120.439 46.34 120.207 46.788C119.975 47.228 119.691 47.544 119.355 47.736C119.019 47.92 118.619 48.012 118.155 48.012V47.268C118.467 47.268 118.743 47.188 118.983 47.028C119.223 46.868 119.427 46.588 119.595 46.188C119.763 45.788 119.895 45.236 119.991 44.532C120.095 43.82 120.163 42.92 120.195 41.832L120.267 39.48H125.355V48H124.527ZM126.814 46.2C126.814 45.808 126.926 45.472 127.15 45.192C127.374 44.904 127.682 44.684 128.074 44.532C128.474 44.372 128.934 44.292 129.454 44.292C129.758 44.292 130.074 44.316 130.402 44.364C130.73 44.412 131.022 44.484 131.278 44.58V44.052C131.278 43.524 131.122 43.104 130.81 42.792C130.498 42.48 130.066 42.324 129.514 42.324C129.178 42.324 128.846 42.388 128.518 42.516C128.198 42.636 127.862 42.816 127.51 43.056L127.198 42.48C127.606 42.2 128.006 41.992 128.398 41.856C128.79 41.712 129.19 41.64 129.598 41.64C130.366 41.64 130.974 41.86 131.422 42.3C131.87 42.74 132.094 43.348 132.094 44.124V47.016C132.094 47.128 132.118 47.212 132.166 47.268C132.214 47.316 132.29 47.344 132.394 47.352V48C132.306 48.008 132.23 48.016 132.166 48.024C132.102 48.032 132.054 48.032 132.022 48.024C131.822 48.016 131.67 47.952 131.566 47.832C131.462 47.712 131.406 47.584 131.398 47.448L131.386 46.992C131.106 47.352 130.742 47.632 130.294 47.832C129.846 48.024 129.39 48.12 128.926 48.12C128.526 48.12 128.162 48.036 127.834 47.868C127.514 47.692 127.262 47.46 127.078 47.172C126.902 46.876 126.814 46.552 126.814 46.2ZM131.002 46.68C131.09 46.568 131.158 46.46 131.206 46.356C131.254 46.252 131.278 46.16 131.278 46.08V45.168C131.006 45.064 130.722 44.984 130.426 44.928C130.138 44.872 129.846 44.844 129.55 44.844C128.966 44.844 128.494 44.96 128.134 45.192C127.774 45.424 127.594 45.74 127.594 46.14C127.594 46.372 127.654 46.592 127.774 46.8C127.894 47 128.07 47.168 128.302 47.304C128.534 47.432 128.806 47.496 129.118 47.496C129.51 47.496 129.874 47.42 130.21 47.268C130.554 47.116 130.818 46.92 131.002 46.68ZM133.845 48V41.748H138.873V48H138.057V42.48H134.661V48H133.845ZM142.237 48V42.48H140.005V41.748H145.285V42.48H143.053V48H142.237ZM149.096 48.12C148.648 48.12 148.232 48.036 147.848 47.868C147.464 47.692 147.132 47.456 146.852 47.16C146.572 46.856 146.352 46.508 146.192 46.116C146.04 45.724 145.964 45.304 145.964 44.856C145.964 44.272 146.096 43.736 146.36 43.248C146.632 42.76 147.004 42.372 147.476 42.084C147.948 41.788 148.484 41.64 149.084 41.64C149.7 41.64 150.236 41.788 150.692 42.084C151.156 42.38 151.52 42.772 151.784 43.26C152.048 43.74 152.18 44.268 152.18 44.844C152.18 44.908 152.18 44.972 152.18 45.036C152.18 45.092 152.176 45.136 152.168 45.168H146.816C146.856 45.616 146.98 46.016 147.188 46.368C147.404 46.712 147.68 46.988 148.016 47.196C148.36 47.396 148.732 47.496 149.132 47.496C149.54 47.496 149.924 47.392 150.284 47.184C150.652 46.976 150.908 46.704 151.052 46.368L151.76 46.56C151.632 46.856 151.436 47.124 151.172 47.364C150.908 47.604 150.596 47.792 150.236 47.928C149.884 48.056 149.504 48.12 149.096 48.12ZM146.792 44.58H151.412C151.38 44.124 151.256 43.724 151.04 43.38C150.832 43.036 150.556 42.768 150.212 42.576C149.876 42.376 149.504 42.276 149.096 42.276C148.688 42.276 148.316 42.376 147.98 42.576C147.644 42.768 147.368 43.04 147.152 43.392C146.944 43.736 146.824 44.132 146.792 44.58ZM153.427 48V41.748H156.547C156.899 41.748 157.195 41.824 157.435 41.976C157.675 42.12 157.855 42.308 157.975 42.54C158.103 42.772 158.167 43.02 158.167 43.284C158.167 43.62 158.087 43.924 157.927 44.196C157.767 44.46 157.535 44.66 157.231 44.796C157.591 44.9 157.883 45.088 158.107 45.36C158.331 45.632 158.443 45.96 158.443 46.344C158.443 46.68 158.359 46.972 158.191 47.22C158.031 47.468 157.807 47.66 157.519 47.796C157.239 47.932 156.915 48 156.547 48H153.427ZM154.207 47.412H156.523C156.731 47.412 156.919 47.36 157.087 47.256C157.263 47.144 157.399 47 157.495 46.824C157.599 46.648 157.651 46.464 157.651 46.272C157.651 46.064 157.603 45.876 157.507 45.708C157.411 45.532 157.283 45.392 157.123 45.288C156.963 45.184 156.779 45.132 156.571 45.132H154.207V47.412ZM154.207 44.568H156.331C156.539 44.568 156.723 44.512 156.883 44.4C157.043 44.288 157.167 44.144 157.255 43.968C157.343 43.792 157.387 43.608 157.387 43.416C157.387 43.128 157.291 42.876 157.099 42.66C156.915 42.444 156.675 42.336 156.379 42.336H154.207V44.568ZM159.357 46.2C159.357 45.808 159.469 45.472 159.693 45.192C159.917 44.904 160.225 44.684 160.617 44.532C161.017 44.372 161.477 44.292 161.997 44.292C162.301 44.292 162.617 44.316 162.945 44.364C163.273 44.412 163.565 44.484 163.821 44.58V44.052C163.821 43.524 163.665 43.104 163.353 42.792C163.041 42.48 162.609 42.324 162.057 42.324C161.721 42.324 161.389 42.388 161.061 42.516C160.741 42.636 160.405 42.816 160.053 43.056L159.741 42.48C160.149 42.2 160.549 41.992 160.941 41.856C161.333 41.712 161.733 41.64 162.141 41.64C162.909 41.64 163.517 41.86 163.965 42.3C164.413 42.74 164.637 43.348 164.637 44.124V47.016C164.637 47.128 164.661 47.212 164.709 47.268C164.757 47.316 164.833 47.344 164.937 47.352V48C164.849 48.008 164.773 48.016 164.709 48.024C164.645 48.032 164.597 48.032 164.565 48.024C164.365 48.016 164.213 47.952 164.109 47.832C164.005 47.712 163.949 47.584 163.941 47.448L163.929 46.992C163.649 47.352 163.285 47.632 162.837 47.832C162.389 48.024 161.933 48.12 161.469 48.12C161.069 48.12 160.705 48.036 160.377 47.868C160.057 47.692 159.805 47.46 159.621 47.172C159.445 46.876 159.357 46.552 159.357 46.2ZM163.545 46.68C163.633 46.568 163.701 46.46 163.749 46.356C163.797 46.252 163.821 46.16 163.821 46.08V45.168C163.549 45.064 163.265 44.984 162.969 44.928C162.681 44.872 162.389 44.844 162.093 44.844C161.509 44.844 161.037 44.96 160.677 45.192C160.317 45.424 160.137 45.74 160.137 46.14C160.137 46.372 160.197 46.592 160.317 46.8C160.437 47 160.613 47.168 160.845 47.304C161.077 47.432 161.349 47.496 161.661 47.496C162.053 47.496 162.417 47.42 162.753 47.268C163.097 47.116 163.361 46.92 163.545 46.68Z" fill="#557A95"/>
<path d="M117.356 63.06C116.636 63.06 116 62.896 115.448 62.568C114.896 62.232 114.452 61.768 114.116 61.176C113.788 60.584 113.604 59.892 113.564 59.1H111.908V63H111.068V54.48H111.908V58.344H113.564C113.62 57.536 113.816 56.84 114.152 56.256C114.496 55.672 114.944 55.22 115.496 54.9C116.056 54.58 116.676 54.42 117.356 54.42C118.132 54.42 118.812 54.608 119.396 54.984C119.98 55.352 120.436 55.86 120.764 56.508C121.092 57.156 121.256 57.904 121.256 58.752C121.256 59.656 121.084 60.428 120.74 61.068C120.396 61.708 119.928 62.2 119.336 62.544C118.752 62.888 118.092 63.06 117.356 63.06ZM117.356 62.304C117.98 62.304 118.516 62.152 118.964 61.848C119.42 61.536 119.772 61.112 120.02 60.576C120.276 60.04 120.404 59.428 120.404 58.74C120.404 58.012 120.272 57.384 120.008 56.856C119.744 56.32 119.384 55.908 118.928 55.62C118.472 55.332 117.948 55.188 117.356 55.188C116.748 55.188 116.22 55.34 115.772 55.644C115.332 55.94 114.988 56.356 114.74 56.892C114.5 57.428 114.38 58.044 114.38 58.74C114.38 59.46 114.504 60.088 114.752 60.624C115.008 61.16 115.36 61.576 115.808 61.872C116.256 62.16 116.772 62.304 117.356 62.304ZM125.811 63.12C125.291 63.12 124.823 62.984 124.407 62.712C123.999 62.44 123.675 62.104 123.435 61.704V65.556H122.619V56.748H123.351V57.96C123.599 57.568 123.931 57.252 124.347 57.012C124.763 56.764 125.207 56.64 125.679 56.64C126.111 56.64 126.507 56.732 126.867 56.916C127.227 57.092 127.539 57.332 127.803 57.636C128.067 57.94 128.271 58.288 128.415 58.68C128.567 59.064 128.643 59.464 128.643 59.88C128.643 60.464 128.523 61.004 128.283 61.5C128.051 61.988 127.723 62.38 127.299 62.676C126.875 62.972 126.379 63.12 125.811 63.12ZM125.583 62.4C125.927 62.4 126.235 62.332 126.507 62.196C126.779 62.052 127.011 61.86 127.203 61.62C127.403 61.38 127.555 61.112 127.659 60.816C127.763 60.512 127.815 60.2 127.815 59.88C127.815 59.544 127.755 59.224 127.635 58.92C127.523 58.616 127.359 58.348 127.143 58.116C126.927 57.884 126.679 57.7 126.399 57.564C126.119 57.428 125.815 57.36 125.487 57.36C125.279 57.36 125.063 57.4 124.839 57.48C124.615 57.56 124.399 57.676 124.191 57.828C123.991 57.972 123.823 58.136 123.687 58.32C123.551 58.504 123.467 58.7 123.435 58.908V60.828C123.563 61.124 123.735 61.392 123.951 61.632C124.167 61.864 124.415 62.052 124.695 62.196C124.983 62.332 125.279 62.4 125.583 62.4ZM130.013 63V56.76H130.829V61.896L134.633 56.748H135.365V63H134.549V57.948L130.805 63H130.013ZM136.454 64.452V62.268H136.562C136.746 62.268 136.914 62.212 137.066 62.1C137.218 61.988 137.354 61.792 137.474 61.512C137.594 61.232 137.69 60.848 137.762 60.36C137.834 59.864 137.882 59.24 137.906 58.488L137.966 56.748H142.034V62.268H142.874V64.452H142.142V63H137.174V64.452H136.454ZM137.798 62.268H141.218V57.48H138.698L138.662 58.56C138.638 59.304 138.586 59.928 138.506 60.432C138.434 60.928 138.338 61.324 138.218 61.62C138.106 61.908 137.966 62.124 137.798 62.268ZM144.099 63V56.76H144.915V61.896L148.719 56.748H149.451V63H148.635V57.948L144.891 63H144.099ZM154.812 63V60.384C154.556 60.504 154.288 60.596 154.008 60.66C153.728 60.716 153.428 60.744 153.108 60.744C152.42 60.744 151.9 60.568 151.548 60.216C151.204 59.864 151.032 59.324 151.032 58.596V56.748H151.848V58.488C151.848 59.048 151.96 59.456 152.184 59.712C152.416 59.968 152.784 60.096 153.288 60.096C153.568 60.096 153.848 60.064 154.128 60C154.408 59.936 154.636 59.852 154.812 59.748V56.748H155.628V63H154.812ZM160.123 63.12C159.675 63.12 159.259 63.036 158.875 62.868C158.491 62.692 158.159 62.456 157.879 62.16C157.599 61.856 157.379 61.508 157.219 61.116C157.067 60.724 156.991 60.304 156.991 59.856C156.991 59.272 157.123 58.736 157.387 58.248C157.659 57.76 158.031 57.372 158.503 57.084C158.975 56.788 159.511 56.64 160.111 56.64C160.727 56.64 161.263 56.788 161.719 57.084C162.183 57.38 162.547 57.772 162.811 58.26C163.075 58.74 163.207 59.268 163.207 59.844C163.207 59.908 163.207 59.972 163.207 60.036C163.207 60.092 163.203 60.136 163.195 60.168H157.843C157.883 60.616 158.007 61.016 158.215 61.368C158.431 61.712 158.707 61.988 159.043 62.196C159.387 62.396 159.759 62.496 160.159 62.496C160.567 62.496 160.951 62.392 161.311 62.184C161.679 61.976 161.935 61.704 162.079 61.368L162.787 61.56C162.659 61.856 162.463 62.124 162.199 62.364C161.935 62.604 161.623 62.792 161.263 62.928C160.911 63.056 160.531 63.12 160.123 63.12ZM157.819 59.58H162.439C162.407 59.124 162.283 58.724 162.067 58.38C161.859 58.036 161.583 57.768 161.239 57.576C160.903 57.376 160.531 57.276 160.123 57.276C159.715 57.276 159.343 57.376 159.007 57.576C158.671 57.768 158.395 58.04 158.179 58.392C157.971 58.736 157.851 59.132 157.819 59.58ZM167.178 63.12C166.722 63.12 166.302 63.036 165.918 62.868C165.542 62.692 165.21 62.452 164.922 62.148C164.642 61.844 164.422 61.496 164.262 61.104C164.11 60.712 164.034 60.296 164.034 59.856C164.034 59.264 164.166 58.724 164.43 58.236C164.694 57.748 165.062 57.36 165.534 57.072C166.006 56.784 166.55 56.64 167.166 56.64C167.75 56.64 168.266 56.776 168.714 57.048C169.162 57.312 169.494 57.672 169.71 58.128L168.918 58.38C168.742 58.06 168.494 57.812 168.174 57.636C167.862 57.452 167.514 57.36 167.13 57.36C166.714 57.36 166.334 57.468 165.99 57.684C165.646 57.9 165.37 58.196 165.162 58.572C164.962 58.948 164.862 59.376 164.862 59.856C164.862 60.328 164.966 60.756 165.174 61.14C165.382 61.524 165.658 61.832 166.002 62.064C166.346 62.288 166.726 62.4 167.142 62.4C167.414 62.4 167.674 62.352 167.922 62.256C168.178 62.16 168.398 62.032 168.582 61.872C168.774 61.704 168.902 61.524 168.966 61.332L169.77 61.572C169.658 61.868 169.47 62.136 169.206 62.376C168.95 62.608 168.646 62.792 168.294 62.928C167.95 63.056 167.578 63.12 167.178 63.12ZM171.04 63V56.748H171.856V59.424H172.792L174.892 56.748H175.828L173.44 59.784L176.128 63H175.168L172.792 60.18H171.856V63H171.04ZM177.275 63V56.76H178.091V61.896L181.895 56.748H182.627V63H181.811V57.948L178.067 63H177.275ZM187.112 63.12C186.664 63.12 186.248 63.036 185.864 62.868C185.48 62.692 185.148 62.456 184.868 62.16C184.588 61.856 184.368 61.508 184.208 61.116C184.056 60.724 183.98 60.304 183.98 59.856C183.98 59.272 184.112 58.736 184.376 58.248C184.648 57.76 185.02 57.372 185.492 57.084C185.964 56.788 186.5 56.64 187.1 56.64C187.716 56.64 188.252 56.788 188.708 57.084C189.172 57.38 189.536 57.772 189.8 58.26C190.064 58.74 190.196 59.268 190.196 59.844C190.196 59.908 190.196 59.972 190.196 60.036C190.196 60.092 190.192 60.136 190.184 60.168H184.832C184.872 60.616 184.996 61.016 185.204 61.368C185.42 61.712 185.696 61.988 186.032 62.196C186.376 62.396 186.748 62.496 187.148 62.496C187.556 62.496 187.94 62.392 188.3 62.184C188.668 61.976 188.924 61.704 189.068 61.368L189.776 61.56C189.648 61.856 189.452 62.124 189.188 62.364C188.924 62.604 188.612 62.792 188.252 62.928C187.9 63.056 187.52 63.12 187.112 63.12ZM184.808 59.58H189.428C189.396 59.124 189.272 58.724 189.056 58.38C188.848 58.036 188.572 57.768 188.228 57.576C187.892 57.376 187.52 57.276 187.112 57.276C186.704 57.276 186.332 57.376 185.996 57.576C185.66 57.768 185.384 58.04 185.168 58.392C184.96 58.736 184.84 59.132 184.808 59.58ZM194.869 65.616C194.733 65.616 194.593 65.592 194.449 65.544C194.313 65.504 194.173 65.444 194.029 65.364L194.329 64.788C194.417 64.836 194.497 64.876 194.569 64.908C194.649 64.94 194.733 64.956 194.821 64.956C195.029 64.956 195.225 64.852 195.409 64.644C195.593 64.436 195.769 64.132 195.937 63.732L196.249 62.952L193.465 56.748H194.329L196.621 62.16L198.733 56.748H199.549L196.573 63.984C196.413 64.36 196.245 64.668 196.069 64.908C195.893 65.148 195.705 65.324 195.505 65.436C195.305 65.556 195.093 65.616 194.869 65.616ZM203.178 63.12C202.722 63.12 202.302 63.036 201.918 62.868C201.542 62.692 201.21 62.452 200.922 62.148C200.642 61.844 200.422 61.496 200.262 61.104C200.11 60.712 200.034 60.296 200.034 59.856C200.034 59.264 200.166 58.724 200.43 58.236C200.694 57.748 201.062 57.36 201.534 57.072C202.006 56.784 202.55 56.64 203.166 56.64C203.75 56.64 204.266 56.776 204.714 57.048C205.162 57.312 205.494 57.672 205.71 58.128L204.918 58.38C204.742 58.06 204.494 57.812 204.174 57.636C203.862 57.452 203.514 57.36 203.13 57.36C202.714 57.36 202.334 57.468 201.99 57.684C201.646 57.9 201.37 58.196 201.162 58.572C200.962 58.948 200.862 59.376 200.862 59.856C200.862 60.328 200.966 60.756 201.174 61.14C201.382 61.524 201.658 61.832 202.002 62.064C202.346 62.288 202.726 62.4 203.142 62.4C203.414 62.4 203.674 62.352 203.922 62.256C204.178 62.16 204.398 62.032 204.582 61.872C204.774 61.704 204.902 61.524 204.966 61.332L205.77 61.572C205.658 61.868 205.47 62.136 205.206 62.376C204.95 62.608 204.646 62.792 204.294 62.928C203.95 63.056 203.578 63.12 203.178 63.12ZM206.452 63.036V62.292C206.668 62.292 206.86 62.236 207.028 62.124C207.196 62.004 207.344 61.804 207.472 61.524C207.608 61.244 207.716 60.86 207.796 60.372C207.876 59.876 207.928 59.248 207.952 58.488L208.024 56.748H212.08V63H211.264V57.48H208.744L208.72 58.56C208.688 59.424 208.62 60.148 208.516 60.732C208.412 61.308 208.264 61.764 208.072 62.1C207.888 62.436 207.66 62.676 207.388 62.82C207.116 62.964 206.804 63.036 206.452 63.036ZM214.568 65.616C214.432 65.616 214.292 65.592 214.148 65.544C214.012 65.504 213.872 65.444 213.728 65.364L214.028 64.788C214.116 64.836 214.196 64.876 214.268 64.908C214.348 64.94 214.432 64.956 214.52 64.956C214.728 64.956 214.924 64.852 215.108 64.644C215.292 64.436 215.468 64.132 215.636 63.732L215.948 62.952L213.164 56.748H214.028L216.32 62.16L218.432 56.748H219.248L216.272 63.984C216.112 64.36 215.944 64.668 215.768 64.908C215.592 65.148 215.404 65.324 215.204 65.436C215.004 65.556 214.792 65.616 214.568 65.616ZM220.376 63V56.748H224.108V57.48H221.192V63H220.376ZM225.24 63V56.76H226.056V61.896L229.86 56.748H230.592V63H229.776V57.948L226.032 63H225.24Z" fill="#A9954E"/>
</svg>
