<svg width="31" height="31" viewBox="0 0 31 31" fill="none" xmlns="http://www.w3.org/2000/svg">
<path d="M26.1501 30.075H25.7541C21.2923 29.5915 17.0057 28.076 13.2359 25.6496C9.73391 23.4278 6.76055 20.4717 4.52316 16.9875C2.0818 13.2225 0.560266 8.93989 0.0806856 4.48325C0.0258606 3.95169 0.079997 3.41455 0.23984 2.90447C0.399666 2.39438 0.661858 1.92194 1.01051 1.51584C1.34961 1.10429 1.76817 0.764721 2.24142 0.517225C2.71464 0.269746 3.23291 0.119369 3.76553 0.0750122H8.24244C9.21207 0.0759899 10.1494 0.422302 10.8851 1.05141C11.6209 1.68052 12.1065 2.55097 12.2544 3.50555C12.418 4.73176 12.7242 5.93483 13.167 7.09045C13.4363 7.81666 13.492 8.6044 13.3274 9.36102C13.1626 10.1176 12.7844 10.8117 12.2372 11.3615L11.1869 12.4078C12.8406 15.0085 15.0589 17.2066 17.6784 18.84L18.7288 17.8109C19.2806 17.2657 19.9775 16.8891 20.737 16.7249C21.4965 16.5609 22.2872 16.6163 23.0163 16.8846C24.1777 17.3217 25.3849 17.6266 26.615 17.7937C27.5896 17.9397 28.4772 18.4349 29.1114 19.1865C29.7454 19.9383 30.0824 20.8946 30.0588 21.876V25.9927C30.0588 27.0633 29.633 28.0904 28.8746 28.8491C28.1163 29.6078 27.0871 30.0362 26.0123 30.0407L26.1501 30.075ZM8.24244 2.63076H4.12713C3.92506 2.64407 3.7278 2.69805 3.54728 2.78944C3.36674 2.88083 3.20669 3.00774 3.07677 3.16249C2.95035 3.30745 2.85465 3.4764 2.79547 3.65916C2.73629 3.84193 2.71483 4.03472 2.7324 4.22596C3.14994 8.26846 4.51218 12.1573 6.70996 15.581C8.736 18.7486 11.4337 21.4359 14.6134 23.4541C18.0526 25.6664 21.9607 27.0524 26.0296 27.5021C26.2412 27.5139 26.453 27.482 26.6515 27.4083C26.85 27.3344 27.0312 27.2203 27.1832 27.0733C27.4574 26.7934 27.6118 26.4182 27.6137 26.027V21.9275C27.6215 21.5666 27.4961 21.2153 27.2612 20.9402C27.0264 20.6652 26.6983 20.4855 26.3395 20.4352C24.917 20.2446 23.5197 19.8995 22.1725 19.4061C21.9072 19.3073 21.6191 19.2853 21.3417 19.3431C21.0643 19.4007 20.8091 19.5356 20.6056 19.732L18.8837 21.4472C18.6821 21.6431 18.4223 21.769 18.1431 21.8061C17.8638 21.8431 17.5802 21.7894 17.334 21.6531C13.6599 19.5848 10.6186 16.5613 8.53516 12.9052C8.39256 12.6616 8.33546 12.3776 8.37288 12.098C8.41029 11.8186 8.54009 11.5594 8.74179 11.3615L10.4637 9.6462C10.6611 9.44726 10.797 9.19594 10.855 8.92222C10.913 8.6485 10.8907 8.36392 10.7908 8.10246C10.2935 6.76109 9.94706 5.36894 9.75771 3.95152C9.71499 3.5832 9.53615 3.2439 9.25603 2.99975C8.97592 2.75558 8.61459 2.62405 8.24244 2.63076Z" fill="#DBBD8A"/>
</svg>
