<svg width="35" height="35" viewBox="0 0 35 35" fill="none" xmlns="http://www.w3.org/2000/svg">
<path d="M34.8265 17.0122L29.6695 4.04797C29.6693 4.04762 29.6692 4.04727 29.669 4.04692L29.6623 4.03006C29.645 3.98669 29.6245 3.94595 29.6017 3.90715C29.5956 3.89661 29.5883 3.88713 29.5819 3.87712C29.5615 3.84517 29.5396 3.81514 29.5159 3.78687C29.5066 3.77581 29.4971 3.76493 29.4872 3.75439C29.4611 3.72647 29.4335 3.70066 29.4042 3.67713C29.3966 3.67081 29.3896 3.66379 29.3816 3.65782C29.3449 3.63043 29.306 3.6069 29.2655 3.5867C29.2539 3.58091 29.2419 3.5767 29.2301 3.5716C29.1983 3.55791 29.1661 3.5465 29.1328 3.53754C29.1191 3.53385 29.1055 3.53017 29.0916 3.52736C29.046 3.51787 28.9996 3.51155 28.9521 3.51155H19.8522C19.6965 2.9653 19.3939 2.49421 18.998 2.15304V0.877932C18.998 0.393138 18.6492 0 18.2192 0H16.7655C16.3355 0 15.9868 0.393138 15.9868 0.877932V2.17394C15.6029 2.51334 15.3098 2.97672 15.1573 3.51173H6.03264C5.98513 3.51173 5.93888 3.51823 5.89309 3.52753C5.87907 3.53034 5.86568 3.53403 5.85197 3.53772C5.81864 3.54667 5.78625 3.55808 5.75463 3.57178C5.74279 3.57687 5.7308 3.58109 5.71928 3.58688C5.67878 3.60707 5.63985 3.63043 5.60309 3.65799C5.59515 3.66396 5.58814 3.67099 5.58051 3.67731C5.55123 3.70084 5.52366 3.72647 5.49749 3.75457C5.48753 3.7651 5.47818 3.77599 5.46868 3.78705C5.44485 3.81532 5.42305 3.84552 5.40265 3.8773C5.3961 3.88748 5.38894 3.89697 5.38287 3.90733C5.36013 3.94613 5.33957 3.98687 5.32228 4.03024L5.31558 4.04709C5.31543 4.04744 5.31527 4.04779 5.31512 4.04815L0.139703 17.0582C0.0521747 17.2003 0 17.3722 0 17.5583C0 21.3085 2.70623 24.3595 6.03264 24.3595C9.35904 24.3595 12.0653 21.3085 12.0653 17.5583C12.0653 17.3722 12.0133 17.2004 11.9256 17.0584L7.2353 5.26724H15.1761C15.333 5.77732 15.617 6.21962 15.9866 6.54657V28.5618H9.08119C8.78979 28.5618 8.52269 28.7453 8.38906 29.0373L6.24694 33.7196C6.1225 33.9918 6.13278 34.3175 6.27404 34.5789C6.41546 34.8404 6.6673 35 6.93907 35H28.0455C28.0464 34.9998 28.0474 35 28.0486 35C28.4786 35 28.8274 34.6069 28.8274 34.1221C28.8274 33.95 28.7834 33.7895 28.7076 33.6541L26.5952 29.0373C26.4616 28.7453 26.1945 28.5618 25.9031 28.5618H18.9978V6.56746C19.3792 6.23859 19.6728 5.78856 19.8331 5.26724H27.7493L23.0029 17.199C23.0017 17.2022 23.0011 17.2054 22.9998 17.2085C22.9962 17.218 22.9936 17.2278 22.9902 17.2375C22.9762 17.2777 22.9649 17.3188 22.9564 17.3602C22.9542 17.3711 22.9514 17.3817 22.9495 17.3925C22.941 17.4429 22.9366 17.4937 22.936 17.5446C22.936 17.5493 22.9347 17.5536 22.9347 17.5583C22.9347 21.3085 25.641 24.3595 28.9674 24.3595C32.2938 24.3595 35 21.3085 35 17.5583C35 17.3508 34.9333 17.1625 34.8265 17.0122ZM10.0683 16.6804H1.99697L6.03264 6.5348L10.0683 16.6804ZM18.4131 4.36016C18.4131 4.92502 18.0055 5.38436 17.5047 5.38436C17.0036 5.38436 16.5961 4.92485 16.5961 4.36016C16.5961 3.7953 17.0036 3.33597 17.5047 3.33597C18.0055 3.33579 18.4131 3.7953 18.4131 4.36016ZM24.9161 16.6804L28.9519 6.5348L32.9876 16.6804H24.9161Z" fill="white"/>
</svg>
