<svg width="30" height="30" viewBox="0 0 30 30" fill="none" xmlns="http://www.w3.org/2000/svg">
<g clip-path="url(#clip0_16_2)">
<path d="M15 30C23.2843 30 30 23.2843 30 15C30 6.71574 23.2843 0 15 0C6.71574 0 0 6.71574 0 15C0 23.2843 6.71574 30 15 30Z" fill="#DBBD8A"/>
<path d="M6.24282 14.8699C6.24282 14.8699 13.7428 11.7919 16.3439 10.7081C17.3411 10.2746 20.7226 8.88726 20.7226 8.88726C20.7226 8.88726 22.2833 8.28036 22.1532 9.75432C22.1098 10.3613 21.763 12.4855 21.4162 14.7832C20.896 18.0347 20.3324 21.5896 20.3324 21.5896C20.3324 21.5896 20.2457 22.5867 19.5087 22.7601C18.7717 22.9335 17.5578 22.1532 17.3411 21.9797C17.1676 21.8497 14.0896 19.8988 12.9625 18.9451C12.659 18.685 12.3122 18.1648 13.0058 17.5578C14.5665 16.1272 16.4306 14.3497 17.5578 13.2226C18.0781 12.7023 18.5983 11.4884 16.4306 12.9624C13.3526 15.0867 10.318 17.0809 10.318 17.0809C10.318 17.0809 9.6243 17.5144 8.32374 17.1242C7.02312 16.7341 5.50578 16.2139 5.50578 16.2139C5.50578 16.2139 4.46538 15.5636 6.24282 14.8699Z" fill="white"/>
</g>
<defs>
<clipPath id="clip0_16_2">
<rect width="30" height="30" fill="white"/>
</clipPath>
</defs>
</svg>
